<?xml version="1.0" encoding="UTF-8" standalone="no"?>
<svg
   xmlns:dc="http://purl.org/dc/elements/1.1/"
   xmlns:cc="http://creativecommons.org/ns#"
   xmlns:rdf="http://www.w3.org/1999/02/22-rdf-syntax-ns#"
   xmlns:svg="http://www.w3.org/2000/svg"
   xmlns="http://www.w3.org/2000/svg"
   viewBox="0 0 670.99969 508"
   id="svg271"
   height="508"
   width="670.99969"
   version="1.1">
  <metadata
     id="metadata277">
    <rdf:RDF>
      <cc:Work
         rdf:about="">
        <dc:format>image/svg+xml</dc:format>
        <dc:type
           rdf:resource="http://purl.org/dc/dcmitype/StillImage" />
      </cc:Work>
    </rdf:RDF>
  </metadata>
  <defs
     id="defs275" />
  <g
     id="Layer1000">
    <g
       id="Layer1001">
      <path
         id="path2"
         style="fill:#1b1918;fill-rule:evenodd"
         d="m 354.2647,238.9929 c 0,0 -0.0734,-24.1787 0.3386,-33.0676 0.4124,-8.8787 1.022,-12.3035 -3.5624,-12.3035 -2.8919,0 -15.2911,-0.3861 -18.8018,-0.6221 -1.6214,-0.1118 -4.5483,2.63 5.7601,2.63 8.4245,0 10.3858,0.9236 12.1148,0.5758 1.7299,-0.3435 1.27,0.9269 1.155,1.845 -0.1164,0.9269 -0.5749,0.5792 -1.6136,0.8109 -1.0387,0.2324 -1.155,1.0387 0.1118,1.3818 1.2704,0.3478 1.3854,0.9273 1.6168,4.1544 0.2328,3.2318 -0.6899,13.5012 -0.2314,18.2315 0.4642,4.7286 -0.2314,14.3029 0,15.5733 0.2314,1.2704 2.7169,0.7689 3.1121,0.7905 z" />
      <path
         id="path4"
         style="fill:#1b1918;fill-rule:evenodd"
         d="m 348.5646,201.1751 c -4.5483,0.2055 -16.531,0 -19.0118,0 -4.3517,0 -4.3167,-0.1977 -4.3517,-3.0987 -0.0125,-1.1767 2.0685,-1.8709 2.0685,-0.3691 0,1.4973 -0.4586,2.4209 2.4254,2.3091 2.884,-0.1163 5.3039,-0.6955 9.8057,-0.6955 4.4975,0 4.2707,0.8073 6.3484,0.8073 2.0718,0 2.7155,1.0469 2.7155,1.0469 z" />
      <path
         id="path6"
         style="fill:#1b1918;fill-rule:evenodd"
         d="m 339.677,238.5806 v -31.8264 c 0,0 1.0941,-2.1252 0.9791,0.5274 -0.1164,2.6568 0,12.5785 -0.3478,15.2311 -0.3435,2.6523 -0.1164,6.6903 0.2314,8.1885 0.3478,1.5018 0.2268,2.3524 0.3432,3.9781 0.3435,4.7935 -1.1111,4.9652 -1.2059,3.9013 z" />
      <path
         id="path8"
         style="fill:#1b1918;fill-rule:evenodd"
         d="m 329.1372,204.0712 h 12.6083 c 1.4468,-0.0167 1.5628,0.5578 -0.7463,0.7905 -2.3045,0.2268 -10.4979,-0.3477 -12.1115,0 -1.6181,0.3478 -2.5408,0.4582 -2.1927,-0.8072 0.3478,-1.2704 1.0816,0.1455 2.4422,0.0167 z" />
      <path
         id="path10"
         style="fill:#1b1918;fill-rule:evenodd"
         d="m 344.0163,217.0883 c -1.4464,1.8584 -0.412,5.3723 2.2743,3.3038 2.6864,-2.0642 -0.5106,-6.9217 -2.6863,-4.7503 -0.6437,0.6392 -2.0259,0.176 0.0508,-1.0894 2.0777,-1.2704 5.884,0.6909 4.039,5.9987 -0.2314,1.2704 -4.2704,2.4244 -4.9617,-0.8106 -0.3477,-1.8417 1.2839,-2.6522 1.2839,-2.6522 z" />
      <path
         id="path12"
         style="fill:#1b1918;fill-rule:evenodd"
         d="m 333.48,215.6418 c 1.0299,-1.2399 4.7503,-0.4123 3.3042,3.3049 -1.4454,3.7207 -4.5451,0.8276 -2.6867,-1.4464 0,0 -0.0213,0.9777 0.4428,1.7807 0.4586,0.8073 1.845,0.2314 1.845,-1.7299 0,-1.961 -1.154,-1.961 -1.9613,-1.6133 -0.8063,0.3432 -1.6611,0.5621 -0.944,-0.296 z" />
      <path
         id="path14"
         style="fill:#1b1918;fill-rule:evenodd;stroke:#ffffff;stroke-width:1.00010002;stroke-linecap:butt;stroke-linejoin:miter;stroke-dasharray:none"
         d="m 308.6828,254.5371 c 2.7382,0.1163 4.0469,0.236 4.0469,0.236" />
      <path
         id="path16"
         style="fill:#1b1918;fill-rule:evenodd"
         d="m 316.1801,229.1906 c 1.5454,0.1163 3.0944,0 3.6889,0 0.5946,0 -0.4788,2.0213 -1.547,4.879 -1.0731,2.8545 -2.7381,6.7854 -2.9741,7.7382 0,0 -1.8971,2.5067 -1.0534,-1.0387 0.8426,-3.5444 3.5424,-6.7457 3.8813,-8.7716 0.337,-2.0256 -0.8436,-2.0256 -1.6863,-2.0256 -0.846,0 -0.3094,-0.7813 -0.3094,-0.7813 z" />
      <path
         id="path18"
         style="fill:#1b1918;fill-rule:evenodd"
         d="m 210.737,241.4862 c -9.8146,-0.4811 -16.5747,-0.0262 -17.2456,-0.0734 -2.7325,-0.1796 -2.9004,-2.1626 1.0941,-1.8237 1.9479,0.1715 2.4549,-2.0213 -1.4255,-1.5155 -3.882,0.507 -6.2432,3.5411 -1.8574,4.2186 4.3874,0.6742 9.7595,0.5287 16.7021,0.8414 4.7316,0.2143 7.1354,-0.5828 9.9361,-0.9823 2.8014,-0.4032 -4.4021,-0.5274 -7.2038,-0.6651 z" />
      <path
         id="path20"
         style="fill:#1b1918;fill-rule:evenodd"
         d="m 191.6684,230.1221 c 6.194,-0.2236 24.5979,0.4549 28.2423,0.3602 1.7348,-0.043 3.295,-2.7428 -2.1059,-2.2832 -5.4008,0.4628 -8.0757,0.3602 -14.0938,-0.489 -6.019,-0.8503 -5.8751,0.3648 -10.3494,-0.0994 -4.4749,-0.4628 -3.5821,2.5756 -1.6932,2.5114 z" />
      <path
         id="path22"
         style="fill:#1b1918;fill-rule:evenodd"
         d="m 196.5888,123.1696 c -7.259,-0.7427 -7.4717,0.3651 -7.1059,2.9141 0.3658,2.5536 0.3658,3.824 2.3681,3.4632 2.0052,-0.3645 1.0944,0.7296 1.0944,1.8197 0,1.0947 -0.9112,1.4595 0.7282,1.6395 1.6398,0.1848 0.8263,5.8325 0.9119,8.0213 0.0531,1.3428 1.1376,1.8886 1.1376,0.2573 0,-1.6267 -0.2713,-6.2357 0.4065,-7.4546 0.6781,-1.2229 0,-1.9011 -0.8129,-1.9011 -0.8148,0 -0.6791,-1.6221 -0.408,-2.7083 0.2726,-1.0858 -0.8132,-3.2527 -0.6782,-4.3389 0.1367,-1.0813 0.9495,-0.4077 2.7122,-0.4077 1.7621,0 1.4619,-1.12 -0.3539,-1.3045 z" />
      <path
         id="path24"
         style="fill:#1b1918;fill-rule:evenodd"
         d="m 194.5855,148.1297 c 0,5.6483 -0.3861,28.4235 -0.3645,29.8785 0.0118,0.8328 1.6418,1.7814 1.5057,-1.3347 -0.1356,-3.12 0.5425,-7.7289 1.0846,-11.6601 0.5415,-3.9315 0.726,-8.5402 0.591,-11.2531 -0.1354,-2.7122 -0.9863,-6.2357 2.2668,-6.2357 3.2543,0 9.0685,0.9486 15.4392,0 6.3724,-0.9525 21.8277,0 28.1987,0.2704 6.3721,0.2704 12.6081,-0.8151 21.826,-1.2229 9.2184,-0.4038 24.8081,0.8152 35.6531,0.5448 10.845,-0.2698 26.9771,-0.9486 37.5517,-0.2743 10.5746,0.6781 20.3363,-0.1334 25.3534,0 5.0167,0.1373 7.1351,-1.7211 2.8905,-1.8113 -9.6611,-0.193 -84.1785,0.1846 -98.2064,0.1846 -14.0292,0 -53.9117,-0.0689 -75.2474,0 -1.4743,0.004 -1.7447,0.1373 -1.8807,1.0858 -0.1367,0.9486 1.0856,2.0341 1.8987,1.356 0.8126,-0.6778 1.4396,0.472 1.4396,0.472 z" />
      <path
         id="path26"
         style="fill:#1b1918;fill-rule:evenodd"
         d="m 193.0656,184.7335 c -0.5883,1.9184 -1.3972,3.1115 0.7906,3.4809 2.1855,0.3644 5.8316,0.3815 7.1049,0.3644 2.631,-0.0383 3.7542,-1.7764 -0.1803,-1.9311 -3.9351,-0.1505 -5.9416,0.5401 -5.9416,-1.1548 0,-1.6994 -0.0571,-1.9868 3.9429,-1.6434 5.0469,0.4291 8.3301,0.2832 14.8362,-0.2576 6.5074,-0.5454 12.4779,-3.0301 5.5618,-2.8109 -4.1927,0.1331 -16.7562,0.8021 -26.4183,0.5494 -2.1888,-0.0561 -2.8263,2.3818 -1.47,2.5191 1.3556,0.1325 2.0292,0.0558 1.7738,0.884 z" />
      <path
         id="path28"
         style="fill:#1b1918;fill-rule:evenodd"
         d="m 201.1433,141.3873 c -0.2133,-1.2573 0.0571,-4.0036 0.1836,-7.1023 0.0901,-2.219 4.6103,-2.9781 3.0954,3.0944 -0.529,2.12 -1.8217,3.648 4.3723,3.4592 6.1957,-0.1806 11.8545,-0.2579 14.9424,0.1888 1.8099,0.2573 0.4549,1.2058 -9.4415,1.0728 -9.8968,-0.1374 -12.8827,0.8839 -13.1522,-0.7129 z" />
      <path
         id="path30"
         style="fill:#1b1918;fill-rule:evenodd"
         d="m 201.6887,179.648 c -0.1311,-3.8195 -0.5958,-15.1368 -0.3618,-16.9434 0.2275,-1.7555 0.8433,1.8197 0.8433,3.9866 0,2.1721 1.137,8.253 0.5969,10.2871 -0.5421,2.0345 1.4002,5.3901 4.3815,5.1158 2.9817,-0.2659 0.7771,1.2228 -2.0695,1.0858 -2.8479,-0.1334 -3.2553,0.3947 -3.3904,-3.5319 z" />
      <path
         id="path32"
         style="fill:#1b1918;fill-rule:evenodd"
         d="m 203.064,223.0365 c 0,-2.473 0.0882,-5.2147 -0.2969,-7.4546 -0.3861,-2.2357 -0.6782,-3.236 -0.4477,-6.7084 0.2307,-3.471 -0.8893,-3.664 -0.9925,-2.2573 -0.1468,2.0001 -0.0492,14.9526 0.3618,20.5868 0.0502,0.6867 -0.3359,0.9227 -0.0272,1.6916 0.3094,0.7725 1.0023,0.4631 3.0099,0.5408 2.0059,0.077 6.7129,0.1537 3.7037,-0.3094 -3.0108,-0.4641 -4.1632,-0.6864 -5.0118,-1.7683 -0.8486,-1.077 -0.2993,-3.2439 -0.2993,-4.3212 z" />
      <path
         id="path34"
         style="fill:#1b1918;fill-rule:evenodd"
         d="m 258.5345,141.0274 c -0.7207,-0.1029 -4.0078,-0.5493 -10.3854,-0.3694 -6.3753,0.1806 -5.3196,-0.5447 -5.2823,-3.0937 0.0335,-2.2406 1.2544,-3.0564 1.5248,-1.2963 0.2707,1.7636 -1.2199,2.8492 5.6929,2.4418 6.9138,-0.4078 8.2701,-0.1328 10.845,0.2704 2.5769,0.4077 2.5323,2.7335 -2.395,2.0472 z" />
      <path
         id="path36"
         style="fill:#1b1918;fill-rule:evenodd"
         d="m 373.8682,128.9975 c -1.2848,0.0263 -17.1272,0.3648 -24.2341,0.5494 -7.1026,0.1802 -53.7471,0.1802 -69.053,-0.1846 -15.3042,-0.3648 -63.5904,0.7985 -79.62,0.1846 -1.4398,-0.0558 -3.0665,-2.0899 1.1364,-1.412 4.2015,0.6781 21.0115,0.8158 29.0105,0.5454 7.9974,-0.275 33.2119,-0.4081 46.499,-0.1377 13.2846,0.2704 44.4662,0.5408 55.3106,0.2704 10.8447,-0.2704 26.1689,0.1377 34.9798,-0.8106 8.8109,-0.9531 10.3169,0.9138 5.9708,0.9951 z" />
      <path
         id="path38"
         style="fill:#1b1918;fill-rule:evenodd"
         d="m 368.0406,122.26 c -6.7444,0.2442 -77.8032,-0.9098 -92.1976,0.18 -14.394,1.0947 -68.3273,0.6352 -74.5161,0.3648 -2.0783,-0.0898 -3.0275,2.4851 4.0213,2.2147 7.0502,-0.2704 46.0945,-0.5408 59.5148,-0.8158 13.4195,-0.2698 20.3314,-0.5402 29.55,-0.4032 9.2207,0.1334 13.4242,-0.275 29.6917,0 16.2678,0.2662 21.6923,-0.137 35.5226,0.2662 13.8276,0.4074 13.4369,-1.9915 8.4133,-1.8067 z" />
      <g
         id="Layer1002">
        <path
           id="path40"
           style="fill:#1b1918;fill-rule:evenodd"
           d="m 483.076,123.1696 c 7.257,-0.7427 7.4717,0.3651 7.1069,2.9141 -0.3694,2.5536 -0.3694,3.824 -2.3691,3.4632 -2.0065,-0.3645 -1.0941,0.7296 -1.0941,1.8197 0,1.0947 0.9102,1.4595 -0.7292,1.6395 -1.6398,0.1848 -0.8243,5.8325 -0.9102,8.0213 -0.0554,1.3428 -1.137,1.8886 -1.137,0.2573 0,-1.6267 0.2697,-6.2357 -0.4078,-7.4546 -0.6788,-1.2229 0,-1.9011 0.8106,-1.9011 0.8155,0 0.6821,-1.6221 0.4077,-2.7083 -0.2697,-1.0858 0.8152,-3.2527 0.6788,-4.3389 -0.1357,-1.0813 -0.9485,-0.4077 -2.7122,-0.4077 -1.7604,0 -1.4602,-1.12 0.3556,-1.3045 z" />
        <path
           id="path42"
           style="fill:#1b1918;fill-rule:evenodd"
           d="m 401.65,127.4829 c 13.2826,-0.4038 38.908,0.9224 46.908,1.1974 7.9958,0.2704 24.8061,0.1327 29.0077,-0.5454 4.2039,-0.6779 2.5765,1.3562 1.137,1.412 -16.0286,0.6139 -64.3122,0.008 -79.6204,-0.1846 -6.4363,-0.0773 -2.7279,-1.7207 2.5677,-1.8794 z" />
        <path
           id="path44"
           style="fill:#1b1918;fill-rule:evenodd"
           d="m 478.3379,122.8048 c 2.0777,-0.0898 3.0262,2.4851 -4.021,2.2147 -7.0515,-0.2704 -46.0929,-0.7729 -59.5164,-0.8158 -8.6461,-0.0253 -14.3494,-1.2229 -4.1442,-1.5231 10.2078,-0.3006 22.8129,0 30.3183,0 7.5045,0 16.2095,0.3002 23.4157,-0.3006 7.2009,-0.6008 13.9476,0.4248 13.9476,0.4248 z" />
      </g>
      <path
         id="path47"
         style="fill:#1b1918;fill-rule:evenodd"
         d="m 329.9572,119.1614 c -0.1855,-1.6395 2.003,-3.4638 -1.0953,-3.4638 -3.0987,0 -10.201,-0.5448 -28.419,-0.7293 -18.2229,-0.1803 -25.6923,-0.5451 -30.6127,0.1845 -4.9181,0.7293 -29.8395,4.9227 -47.0064,5.4635 -4.6581,0.1501 -5.3385,1.5103 3.5097,1.0557 8.847,-0.4549 30.8533,-1.588 36.7543,-3.1763 5.8971,-1.5877 7.9401,-1.8152 17.2442,-1.3599 9.3,0.4549 15.8791,-0.9102 25.4088,-0.9102 9.5297,0 21.7828,-0.2275 19.9673,1.3651 -1.8158,1.5877 4.2491,1.5707 4.2491,1.5707 z" />
      <path
         id="path49"
         style="fill:#1b1918;fill-rule:evenodd"
         d="m 324.4931,112.419 c 3.4595,0.0469 11.4756,0 26.9644,0.5451 15.489,0.5493 11.6621,-1.0944 9.2933,-1.6398 -2.368,-0.5448 -6.5595,-1.2741 -13.846,-2.7336 -7.292,-1.4543 -8.9318,-1.9997 -11.845,-1.2704 -2.9144,0.7257 -18.2317,3.588 -25.1456,4.7342 -4.3212,0.7208 -5.5234,-1.3822 2.5818,-2.884 8.1046,-1.4978 16.2121,-1.2019 21.6153,-3.9013 5.4032,-2.6991 5.1026,-0.6008 13.2046,1.2016 8.1075,1.8026 15.0125,3.3005 17.7145,4.8023 2.7031,1.5022 4.8024,3.6008 15.6084,3.3006 10.806,-0.3006 22.2128,0 26.1164,0.6005 3.9011,0.6007 44.1247,5.1029 48.6265,5.4031 4.5045,0.3006 -1.7997,1.8027 -9.6047,0.9017 -7.8047,-0.9017 -31.5173,-3.9014 -38.4233,-4.5018 -6.9026,-0.6015 -18.0092,-1.2023 -24.3147,-0.9017 -6.3016,0.3002 -15.9063,-0.6008 -19.8119,-0.6008 -3.9004,0 -8.1043,-0.6008 -8.4045,1.8027 -0.1501,1.1931 0.3002,2.1026 -1.802,2.3989 -2.0994,0.3006 -3.4894,-0.2789 -3.6012,-2.0987 -0.3002,-4.8023 -4.2015,-2.4034 -17.4117,-3.0039 -13.2098,-0.6008 -11.4307,-2.2058 -7.5146,-2.1547 z" />
      <path
         id="path51"
         style="fill:#1b1918;fill-rule:evenodd;stroke:#ffffff;stroke-width:1.00010002;stroke-linecap:butt;stroke-linejoin:miter;stroke-dasharray:none"
         d="m 337.248,102.7631 c 0,-2.1845 2.5496,-3.824 1.275,2.9138" />
      <path
         id="path53"
         style="fill:#1b1918;fill-rule:evenodd"
         d="m 283.0957,113.8824 c -3.0983,0 2.7683,-2.2832 -2.4225,-2.2832 -5.1947,0 -1.7102,-3.0554 2.6418,-2.6394 2.4586,0.236 0.1885,1.1416 -1.6227,1.1416 -1.8152,0 -2.2701,0.6827 2.0409,1.1373 2.0404,0.2235 1.5684,1.1721 0.6805,1.3606 -2.3691,0.4932 2.1347,1.3559 0.7853,1.2448 -1.3563,-0.1164 -2.1033,0.0383 -2.1033,0.0383 z" />
      <path
         id="path55"
         style="fill:#1b1918;fill-rule:evenodd;stroke:#ffffff;stroke-width:1.00010002;stroke-linecap:butt;stroke-linejoin:miter;stroke-dasharray:none"
         d="m 257.0796,107.8657 c 0.3648,-4.3733 -0.1839,-5.2871 -1.8237,-5.1026 -1.6394,0.1845 -6.3753,-0.3648 -9.1088,0 -2.7326,0.3648 -2.1806,1.6611 -1.6408,5.6473 0.1491,1.1118 0.9518,0.6611 0.7499,-1.6909 -0.1993,-2.3513 1.2488,-2.45 5.3517,-2.1022 4.1026,0.3516 3.2016,-0.099 2.8024,3.9007 -0.3989,4.0039 -4.7034,7.609 -1.65,7.2569 3.0538,-0.3516 4.9545,-0.8066 4.9545,-0.8066" />
      <path
         id="path57"
         style="fill:#1b1918;fill-rule:evenodd"
         d="m 396.8162,113.8824 c 3.0983,0 -2.7686,-2.2832 2.4221,-2.2832 5.1931,0 1.7129,-3.0554 -2.6411,-2.6394 -2.4595,0.236 -0.1888,1.1416 1.6238,1.1416 1.8154,0 2.2684,0.6827 -2.0427,1.1373 -2.0406,0.2235 -1.5686,1.1721 -0.6778,1.3606 2.3668,0.4932 -2.1373,1.3559 -0.7856,1.2448 1.3559,-0.1164 2.1013,0.0383 2.1013,0.0383 z" />
      <path
         id="path59"
         style="fill:#1b1918;fill-rule:evenodd;stroke:#ffffff;stroke-width:1.00010002;stroke-linecap:butt;stroke-linejoin:miter;stroke-dasharray:none"
         d="m 424.8084,102.7631 c -2.7316,0.3648 -2.1803,1.6611 -1.6398,5.6473 0.1504,1.1118 0.9508,0.6611 0.7509,-1.6909 -0.2019,-2.3513 1.2491,-2.45 5.3527,-2.1022 4.1019,0.3516 3.2009,-0.099 2.8014,3.9007 -0.3986,4.0039 -4.4075,6.6991 -1.6048,7.9564 2.4504,1.1032 4.8047,0.803 4.8047,0.803 -0.1852,-0.7296 0.1026,-5.0429 0.4697,-9.4117 0.3648,-4.3733 -0.1839,-5.2871 -1.8237,-5.1026" />
      <path
         id="path61"
         style="fill:#1b1918;fill-rule:evenodd"
         d="m 234.1218,141.2073 c 4.7398,0.0774 5.6477,-0.7292 5.6477,-2.549 0,-1.8243 0.546,-3.644 -0.7296,-3.8279 -1.2747,-0.1845 -4.3711,-0.176 -7.8352,-0.1845 -1.861,0 -2.9456,1.0809 0.1721,1.0809 3.1183,0 6.7801,-0.4031 6.5087,1.6313 -0.2727,2.0298 -2.8473,1.7591 -5.6939,1.7591 -2.8479,0 -2.781,2.0088 1.9302,2.0901 z" />
      <path
         id="path63"
         style="fill:#1b1918;fill-rule:evenodd"
         d="m 325.777,141.0274 c -0.7218,-0.1029 -4.0089,-0.5493 -10.3862,-0.3694 -6.3776,0.1806 -5.3219,-0.5447 -5.2835,-3.0937 0.0321,-2.2406 1.2534,-3.0564 1.5238,-1.2963 0.2704,1.7636 -1.219,2.8492 5.6948,2.4418 6.9142,-0.4078 8.2701,-0.1328 10.8447,0.2704 2.5759,0.4077 2.5284,2.7335 -2.3936,2.0472 z" />
      <path
         id="path65"
         style="fill:#1b1918;fill-rule:evenodd"
         d="m 301.3613,141.2073 c 4.7404,0.0774 5.6477,-0.7292 5.6477,-2.549 0,-1.8243 0.547,-3.644 -0.7296,-3.8279 -1.2747,-0.1845 -4.3711,-0.176 -7.8342,-0.1845 -1.8607,0 -2.9466,1.0809 0.1734,1.0809 3.116,0 6.7768,-0.4031 6.5064,1.6313 -0.2724,2.0298 -2.8457,1.7591 -5.6952,1.7591 -2.8453,0 -2.7811,2.0088 1.9315,2.0901 z" />
      <path
         id="path67"
         style="fill:#1b1918;fill-rule:evenodd"
         d="m 354.17,141.0274 c 0.7214,-0.1029 4.0063,-0.5493 10.3858,-0.3694 6.378,0.1806 5.3196,-0.5447 5.2813,-3.0937 -0.0305,-2.2406 -1.2534,-3.0564 -1.5245,-1.2963 -0.2697,1.7636 1.2219,2.8492 -5.6919,2.4418 -6.9141,-0.4078 -8.2701,-0.1328 -10.8492,0.2704 -2.5756,0.4077 -2.5281,2.7335 2.3985,2.0472 z" />
      <path
         id="path69"
         style="fill:#1b1918;fill-rule:evenodd"
         d="m 378.5827,141.2073 c -4.7381,0.0774 -5.645,-0.7292 -5.645,-2.549 0,-1.8243 -0.5474,-3.644 0.7273,-3.8279 1.275,-0.1845 4.3733,-0.176 7.8365,-0.1845 1.8607,0 2.9436,1.0809 -0.1714,1.0809 -3.1177,0 -6.7808,-0.4031 -6.5088,1.6313 0.2721,2.0298 2.8476,1.7591 5.6933,1.7591 2.8476,0 2.781,2.0088 -1.9319,2.0901 z" />
      <path
         id="path71"
         style="fill:#1b1918;fill-rule:evenodd"
         d="m 421.1116,141.0274 c 0.7181,-0.1029 4.0062,-0.5493 10.3825,-0.3694 6.3776,0.1806 5.3219,-0.5447 5.2835,-3.0937 -0.0318,-2.2406 -1.2534,-3.0564 -1.5231,-1.2963 -0.2711,1.7636 1.2183,2.8492 -5.6959,2.4418 -6.9138,-0.4078 -8.2697,-0.1328 -10.8443,0.2704 -2.5756,0.4077 -2.5284,2.7335 2.3973,2.0472 z" />
      <path
         id="path73"
         style="fill:#1b1918;fill-rule:evenodd"
         d="m 459.8331,141.0274 c 0.7204,-0.1029 4.0072,-0.5493 10.3851,-0.3694 6.3773,0.1806 5.3216,-0.5447 5.2832,-3.0937 -0.035,-2.2406 -1.2533,-3.0564 -1.5231,-1.2963 -0.271,1.7636 1.2183,2.8492 -5.6958,2.4418 -6.9139,-0.4078 -8.2698,-0.1328 -10.8444,0.2704 -2.5778,0.4077 -2.5283,2.7335 2.395,2.0472 z" />
      <path
         id="path75"
         style="fill:#1b1918;fill-rule:evenodd"
         d="m 445.5243,141.2073 c -4.7427,0.0774 -5.6483,-0.7292 -5.6483,-2.549 0,-1.8243 -0.5441,-3.644 0.7295,-3.8279 1.2747,-0.1845 4.3711,-0.176 7.8365,-0.1845 1.8584,0 2.9446,1.0809 -0.174,1.0809 -3.1177,0 -6.7785,-0.4031 -6.5074,1.6313 0.2697,2.0298 2.8466,1.7591 5.6945,1.7591 2.8453,0 2.7811,2.0088 -1.9308,2.0901 z" />
      <path
         id="path77"
         style="fill:#1b1918;fill-rule:evenodd"
         d="m 283.7654,141.3535 c 0.0131,-1.6395 -0.0643,-6.9269 -0.1823,-9.1111 -0.0904,-1.6352 -1.4097,-1.9315 -1.5562,0.7079 -0.1455,2.6434 -0.2933,5.5792 -0.2933,7.1928 0,1.6096 2.0105,4.0341 2.0318,1.2104 z" />
      <path
         id="path79"
         style="fill:#1b1918;fill-rule:evenodd"
         d="m 337.8317,221.4737 c -1.6732,2.1498 -6.4543,1.9105 -7.6522,-2.6309 -0.6221,-2.3766 1.8925,-7.5822 5.979,-6.2134 0.9181,0.3094 0.6863,0.5362 -0.6955,0.5362 -1.3868,0 -4.2708,0.6955 -4.4976,4.7332 0,1.4982 0.8063,3.2272 2.4199,3.8063 1.6136,0.5759 3.1164,0.6913 3.5749,-0.6899 0.4641,-1.3865 0.8715,0.4585 0.8715,0.4585 z" />
      <path
         id="path81"
         style="fill:#1b1918;fill-rule:evenodd"
         d="m 327.3171,205.6939 c 0.4766,4.7808 0.0767,11.2397 0.236,14.8234 0.0642,1.4159 0.6391,2.1118 0.8715,-0.8886 0.2317,-3 0,-8.5395 0.1154,-11.3084 0.1163,-2.7676 -1.2229,-2.6264 -1.2229,-2.6264 z" />
      <path
         id="path83"
         style="fill:#1b1918;fill-rule:evenodd"
         d="m 370.9957,230.0227 c -0.8332,2.8545 -1.0728,5.1164 -1.7853,5.1164 -0.7126,0 -1.906,0.5962 -2.4999,-0.5929 0,0 -0.4529,-2.3815 0.5602,-1.3687 1.0105,1.0131 1.6857,0 1.8538,-1.8539 0.1695,-1.8541 1.8712,-1.3009 1.8712,-1.3009 z" />
      <path
         id="path85"
         style="fill:#1b1918;fill-rule:evenodd"
         d="m 372.4241,229.9031 c -1.6136,-1.1124 -2.7371,-0.7125 -4.2852,0.1196 -1.547,0.8332 -2.5001,-0.3556 -2.9754,-0.9531 0,0 0.7565,0.2281 1.0941,-0.9518 0.3343,-1.18 0.8967,0.4123 1.8813,0.1196 1.4871,-0.4382 0.4789,-2.2615 0,-3.0937 -0.4742,-0.8325 0.0666,-2.4596 0.3589,-2.8581 0.7962,-1.0862 -0.0472,-0.0734 0.6267,1.6136 0.6755,1.686 0.5061,3.0386 2.0259,2.6988 1.5185,-0.339 1.3638,2.2232 1.2737,3.3051 z" />
      <path
         id="path87"
         style="fill:#1b1918;fill-rule:evenodd"
         d="m 368.4978,244.3011 c 0,0 1.0561,-8.7375 0,-8.5658 -0.8908,0.141 -0.8885,-0.3648 -0.7214,1.6608 0.1672,2.0259 0,2.0259 -0.5057,3.88 -0.5071,1.8575 -0.5841,2.6772 1.2271,3.025 z" />
      <path
         id="path89"
         style="fill:#1b1918;fill-rule:evenodd"
         d="m 367.545,239.5416 c 1.0299,1.1767 4.6408,4.5235 1.4271,4.7595 0,0 -0.6909,0.858 -1.7014,-1.5064 -1.0131,-2.3599 -0.803,-4.4806 0.2743,-3.2531 z" />
      <path
         id="path91"
         style="fill:#1b1918;fill-rule:evenodd"
         d="m 313.968,230.0227 c -0.8351,2.8545 -1.0711,5.1164 -1.7876,5.1164 -0.7126,0 -1.901,0.5962 -2.4976,-0.5929 0,0 -0.4529,-2.3815 0.5579,-1.3687 1.0128,1.0131 1.6909,0 1.8584,-1.8539 0.1672,-1.8541 1.8689,-1.3009 1.8689,-1.3009 z" />
      <path
         id="path93"
         style="fill:#1b1918;fill-rule:evenodd"
         d="m 315.3948,229.9031 c -1.6094,-1.1124 -2.7356,-0.7125 -4.2832,0.1196 -1.5445,0.8332 -2.4999,-0.3556 -2.9758,-0.9531 0,0 0.7571,0.2281 1.0941,-0.9518 0.3372,-1.18 0.8948,0.4123 1.8817,0.1196 1.4893,-0.4382 0.4765,-2.2615 0,-3.0937 -0.4763,-0.8325 0.0691,-2.4596 0.3562,-2.8581 0.7985,-1.0862 -0.0429,-0.0734 0.6313,1.6136 0.6736,1.686 0.5044,3.0386 2.0236,2.6988 1.5169,-0.339 1.3668,2.2232 1.2721,3.3051 z" />
      <path
         id="path95"
         style="fill:#1b1918;fill-rule:evenodd"
         d="m 311.4678,244.3011 c 0,0 1.0558,-8.7375 0,-8.5658 -0.8879,0.141 -0.8879,-0.3648 -0.7184,1.6608 0.1671,2.0259 0,2.0259 -0.5087,3.88 -0.5067,1.8575 -0.5841,2.6772 1.2271,3.025 z" />
      <path
         id="path97"
         style="fill:#1b1918;fill-rule:evenodd"
         d="m 310.5154,239.5416 c 1.0321,1.1767 4.6434,4.5235 1.429,4.7595 0,0 -0.6909,0.858 -1.7037,-1.5064 -1.0108,-2.3599 -0.7984,-4.4806 0.2747,-3.2531 z" />
      <path
         id="path99"
         style="fill:#1b1918;fill-rule:evenodd"
         d="m 363.4981,229.1906 c -1.545,0.1163 -3.094,0 -3.687,0 -0.5962,0 0.4766,2.0213 1.5448,4.879 1.0741,2.8545 2.7381,6.7854 2.9744,7.7382 0,0 1.592,2.1668 0.5792,-1.0387 -1.0128,-3.2059 -4.0469,-8.0987 -4.0469,-9.6126 0,-1.5245 0.1681,-1.353 2.1927,-1.353 2.0223,0 0.4428,-0.6129 0.4428,-0.6129 z" />
      <path
         id="path101"
         style="fill:#1b1918;fill-rule:evenodd"
         d="m 461.9117,241.4951 c 13.418,0.8151 23.2882,-0.0259 24.1047,-0.0823 2.7335,-0.1796 2.9131,-1.8237 -1.0954,-1.8237 0,0 -3.0983,0.6739 -10.0148,0.6739 -2.667,0 -8.0462,-0.0383 -14.1901,-0.0901 -2.631,-0.0259 -2.9823,1.0682 1.1956,1.3222 z" />
      <path
         id="path103"
         style="fill:#1b1918;fill-rule:evenodd"
         d="m 397.5962,141.5721 c -0.0573,-1.6391 0.2973,-6.9262 0.1856,-9.1108 -0.0836,-1.6355 -1.6972,-2.8109 -1.844,0.4163 -0.1482,3.2271 0,4.9908 0,6.6005 0,1.6181 -0.7352,3.5234 0,3.5234 0.7325,0 1.7083,-0.0731 1.6584,-1.4294 z" />
      <path
         id="path105"
         style="fill:#1b1918;fill-rule:evenodd"
         d="m 398.003,234.675 c 0.0836,-2.3691 -0.5477,-5.2868 1.276,-5.4677 1.8223,-0.1839 -0.9115,-3.6438 -1.276,-5.1026 -0.3638,-1.4589 0.7293,-11.6595 0.5464,-18.7631 -0.1819,-7.1069 -1.0941,-14.2141 0.3648,-14.3937 1.4602,-0.1852 1.0931,-1.6395 -0.1819,-2.0089 -1.2747,-0.3602 -0.9102,-1.9996 -0.9102,-3.4592 0,-1.4588 0.3648,-2.7289 1.275,-3.643 0.9102,-0.9102 0.9102,-1.279 -0.5477,-1.6395 -1.4566,-0.3648 -0.9102,-3.4631 -0.9102,-7.1072 0,-3.6437 0.1426,-17.8532 0.1829,-21.8618 0.0262,-2.7676 -2.5743,-3.566 -2.3734,0.4379 0.2023,3.9997 0.6008,15.2095 0.2023,19.6087 -0.4022,4.4032 -0.803,8.0037 0,9.6048 0.7981,1.605 -0.005,3.2058 0.3985,5.0039 0.3996,1.8024 0.6008,3.6054 0.1977,5.6051 -0.3986,2 -0.1977,9.4074 0.2019,13.609 0.3989,4.2016 -0.1977,10.8064 0,13.806 0.2012,3.0036 -0.2019,7.2052 0.803,7.6038 0.9993,0.4044 -2.0043,1.4035 -1.8034,4.4038 0.2023,3.0036 -0.6007,4.6005 0.6008,5.2009 1.2026,0.6018 1.906,-0.0767 1.9535,-1.4372 z" />
      <path
         id="path107"
         style="fill:#1b1918;fill-rule:evenodd"
         d="m 390.1675,182.0213 c -1.8214,-0.5493 -0.3625,-2.1888 0.5477,-3.099 0.9125,-0.9141 0.7296,-2.7339 0.7296,-5.1026 0,-2.3691 -0.0813,-11.8535 -0.3648,-15.8493 -0.2337,-3.3045 1.566,-4.1026 1.9682,1.6995 0.4009,5.8027 -0.6008,15.8063 -0.4022,18.4117 0.2023,2.6005 -1.9996,1.8023 -0.7994,2.9997 1.2016,1.2015 -1.6791,0.94 -1.6791,0.94 z" />
      <path
         id="path109"
         style="fill:#1b1918;fill-rule:evenodd"
         d="m 390.5346,221.7402 c -0.0383,-4.0131 0.3612,-21.5012 0.3612,-24.7795 0,-3.2789 -0.5454,-4.1937 -1.0908,-6.5625 -0.5487,-2.369 1.6273,-1.292 1.275,-3.4588 -0.2337,-1.455 2.3668,-1.2534 1.9682,0.9485 -0.4022,2.2019 -1.8033,1.7978 -1.6011,4.8024 0.1996,3.0003 1.0003,10.8063 1.1989,20.2088 0.2023,9.4078 -0.6007,12.0086 -0.6007,14.4114 0,2.3996 -1.4206,3.6608 -1.5107,-5.5703 z" />
      <g
         id="Layer1003">
        <path
           id="path111"
           style="fill:#1b1918;fill-rule:evenodd"
           d="m 281.5251,234.675 c -0.0813,-2.3691 0.547,-5.2868 -1.2766,-5.4677 -1.8217,-0.1839 0.9118,-3.6438 1.2766,-5.1026 0.3625,-1.4589 -0.7293,-11.6595 -0.547,-18.7631 0.1822,-7.1069 1.094,-14.2141 -0.3648,-14.3937 -1.4573,-0.1852 -1.0925,-1.6395 0.1825,-2.0089 1.274,-0.3602 0.9096,-1.9996 0.9096,-3.4592 0,-1.4588 -0.3625,-2.7289 -1.2744,-3.643 -0.9102,-0.9102 -0.9102,-1.279 0.5471,-1.6395 1.4588,-0.3648 0.9095,-3.4631 0.9095,-7.1072 0,-3.6437 -0.1396,-17.8532 -0.1822,-21.8618 -0.0256,-2.7676 2.5749,-3.566 2.3733,0.4379 -0.1999,3.9997 -0.6008,15.2095 -0.1999,19.6087 0.3992,4.4032 0.8007,8.0037 0,9.6048 -0.7998,1.605 0.002,3.2058 -0.4009,5.0039 -0.3989,1.8024 -0.5988,3.6054 -0.1996,5.6051 0.4012,2 0.1996,9.4074 -0.1993,13.609 -0.3992,4.2016 0.197,10.8064 0,13.806 -0.1999,3.0036 0.2013,7.2052 -0.8007,7.6038 -1.0023,0.4044 2.002,1.4035 1.8004,4.4038 -0.1999,3.0036 0.6008,4.6005 -0.6008,5.2009 -1.1996,0.6018 -1.9036,-0.0767 -1.9528,-1.4372 z" />
        <path
           id="path113"
           style="fill:#1b1918;fill-rule:evenodd"
           d="m 289.3593,182.0213 c 1.822,-0.5493 0.3631,-2.1888 -0.5471,-3.099 -0.9095,-0.9141 -0.7296,-2.7339 -0.7296,-5.1026 0,-2.3691 0.0813,-11.8535 0.3648,-15.8493 0.2337,-3.3045 -1.566,-4.1026 -1.9652,1.6995 -0.4038,5.8027 0.5985,15.8063 0.3992,18.4117 -0.2022,2.6005 2.002,1.8023 0.8001,2.9997 -1.1993,1.2015 1.6778,0.94 1.6778,0.94 z" />
        <path
           id="path115"
           style="fill:#1b1918;fill-rule:evenodd"
           d="m 288.9928,221.7402 c 0.0384,-4.0131 -0.3608,-21.5012 -0.3608,-24.7795 0,-3.2789 0.545,-4.1937 1.0904,-6.5625 0.5494,-2.369 -1.6244,-1.292 -1.275,-3.4588 0.2337,-1.455 -2.3644,-1.2534 -1.9652,0.9485 0.3992,2.2019 1.8,1.7978 1.6004,4.8024 -0.2015,3.0003 -1.0019,10.8063 -1.2012,20.2088 -0.2022,9.4078 0.6008,12.0086 0.6008,14.4114 0,2.3996 1.4205,3.6608 1.5106,-5.5703 z" />
      </g>
      <path
         id="path118"
         style="fill:#1b1918;fill-rule:evenodd"
         d="m 359.3438,231.9975 c -0.1695,2.3602 -0.1695,6.5789 -0.1695,7.9256 0,1.353 1.0128,4.5586 1.6883,7.0902 0.6739,2.5283 2.6998,6.0728 1.0105,-1.3517 -1.688,-7.4241 -1.3494,-8.7722 -1.3494,-10.7981 0,-2.0246 -1.1799,-2.866 -1.1799,-2.866 z" />
      <path
         id="path120"
         style="fill:#1b1918;fill-rule:evenodd;stroke:#ffffff;stroke-width:1.00010002;stroke-linecap:butt;stroke-linejoin:miter;stroke-dasharray:none"
         d="m 227.3558,190.5267 c 0.6172,0 2.9315,1.4081 -0.4634,1.4081 -3.395,0 -8.1017,0.1547 -11.651,0.3861 -3.5487,0.2317 -10.7998,0.4641 -15.0456,0.2317 -4.2439,-0.2317 -4.0734,-0.4631 -4.0734,1.0004 0,1.468 0.0793,5.5578 -0.2308,6.5618 -0.8607,2.7902 0.0761,7.2524 0,11.0341 -0.0764,3.7804 -0.3091,7.021 -0.1544,11.8017 0.1544,4.7844 -1.7145,1.6215 -1.6997,0.6087 0.0603,-4.0076 -0.1954,-26.0588 0,-29.6979 0.0626,-1.1541 -0.2468,-1.4635 -1.6362,-1.3858 -1.3874,0.077 -1.4658,-0.4638 -1.4658,-1.313 0,-0.8502 0,-1.4081 0.7329,-1.3697 12.2003,0.683 28.9699,0.7305 35.5301,0.7305" />
      <path
         id="path122"
         style="fill:#1b1918;fill-rule:evenodd"
         d="m 488.4903,230.1221 c -6.1957,-0.2236 -24.5979,0.4549 -28.2416,0.3602 -1.7359,-0.043 -3.433,-1.8158 1.9679,-1.3563 5.4008,0.4631 8.3323,0.1547 14.353,-0.6955 6.0174,-0.8457 5.9394,0.5408 10.4153,0.078 4.4753,-0.4595 3.3956,1.6778 1.5054,1.6136 z" />
      <path
         id="path124"
         style="fill:#1b1918;fill-rule:evenodd"
         d="m 379.373,147.1169 c 10.8489,0.0429 26.4337,-0.9486 35.6543,-0.5448 9.2186,0.4078 15.4517,1.4933 21.8237,1.2229 6.373,-0.2704 21.827,-1.2229 28.2001,-0.2704 6.3707,0.9486 13.6899,0 16.9453,0 3.2533,0 1.8948,3.5235 1.7614,6.2357 -0.1341,2.7129 0,7.3216 0.5411,11.2531 0.5431,3.9312 1.0862,8.5401 0.9485,11.6601 -0.1334,3.1161 0.6785,2.1675 0.691,1.3347 0.0213,-1.455 -0.3648,-24.2302 -0.3648,-29.8785 0,0 0.6266,-1.1498 1.4398,-0.472 0.8142,0.6781 2.0371,-0.4074 1.8991,-1.356 -0.1377,-0.9485 -0.4074,-1.0819 -1.8824,-1.0858 -21.3353,-0.0689 -61.2178,0.2189 -75.2467,0 -17.7417,-0.2832 -27.9515,0.056 -32.0332,-0.1118 -4.0809,-0.1714 -7.7293,1.983 -0.3772,2.0128 z" />
      <path
         id="path126"
         style="fill:#1b1918;fill-rule:evenodd"
         d="m 486.4861,184.3858 c 0.5893,1.9184 2.0042,3.4592 -0.1829,3.8286 -2.1839,0.3644 -5.8322,0.3815 -7.1049,0.3644 -2.6333,-0.0383 -3.5579,-0.8885 0.3782,-1.0432 3.9351,-0.1547 5.9417,0.5411 5.9417,-1.1584 0,-1.6951 0.3703,-3.4287 -3.6267,-3.0855 -5.0462,0.433 -8.8447,0.841 -15.3511,0.3002 -6.5064,-0.5454 -12.4799,-2.3389 -5.5625,-2.1199 4.1938,0.1327 16.7592,0.8023 26.4193,0.5493 2.1895,-0.0603 2.7303,1.1632 1.3766,1.2956 -1.3553,0.138 -2.5431,0.2406 -2.2877,1.0689 z" />
      <path
         id="path128"
         style="fill:#1b1918;fill-rule:evenodd"
         d="m 478.4713,179.648 c 0.1308,-3.8195 0.5939,-15.1368 0.3602,-16.9434 -0.2271,-1.7555 -0.768,-1.7555 -0.768,0.4114 0,2.1674 -1.627,13.4248 -1.0862,15.4546 0.5431,2.0341 0,3.7978 -2.9823,3.5235 -2.9833,-0.2659 -1.7637,1.2228 1.0853,1.0858 2.8476,-0.1334 3.253,0.3947 3.391,-3.5319 z" />
      <path
         id="path130"
         style="fill:#1b1918;fill-rule:evenodd"
         d="m 477.3376,224.3452 c 0,-2.4719 0.2346,-4.2445 0.6184,-6.4847 0.3865,-2.2357 0.4632,-5.63 0.2318,-9.102 -0.2318,-3.4723 0.5408,-3.549 0.6437,-2.1423 0.1478,2.0001 0.0495,14.9526 -0.3602,20.5868 -0.0521,0.6867 0.334,0.9227 0.0259,1.6916 -0.3094,0.7725 -1.003,0.4631 -3.0092,0.5408 -2.0056,0.077 -6.7142,0.1537 -3.7037,-0.3094 3.0092,-0.4641 4.0131,-0.6955 4.8633,-1.7726 0.8466,-1.0819 0.69,-1.9308 0.69,-3.0082 z" />
      <path
         id="path132"
         style="fill:#1b1918;fill-rule:evenodd;stroke:#ffffff;stroke-width:1.00010002;stroke-linecap:butt;stroke-linejoin:miter;stroke-dasharray:none"
         d="m 452.8029,191.3173 c -0.6178,0 -2.9315,0.6175 0.4628,0.6175 3.3956,0 8.1029,0.1547 11.652,0.3861 3.549,0.2317 10.8004,0.4641 15.0452,0.2317 4.2445,-0.2317 4.8598,-0.4631 4.8598,1.0004 0,1.468 -0.078,5.5578 0.2314,6.5618 0.8607,2.7902 -0.0744,7.2524 0,11.0341 0.078,3.7804 0.3094,7.021 0.1547,11.8017 -0.1547,4.7844 0.9272,1.6215 0.9125,0.6087 -0.06,-4.0076 0.1953,-26.0588 0,-29.6979 -0.062,-1.1541 0.2461,-1.4635 1.6375,-1.3858 1.3854,0.077 1.4631,-0.4638 1.4631,-1.313 0,-0.8502 0,-0.6221 -0.7316,-0.5792 -12.1996,0.6821 -28.9712,0.7293 -35.5294,0.7293" />
      <path
         id="path134"
         style="fill:#1b1918;fill-rule:evenodd"
         d="m 232.6826,194.3638 c -3.1701,0 -5.4599,-0.3513 -6.6936,0 -1.233,0.3521 -0.8807,1.2318 -0.7053,2.4684 0.1773,1.2308 0.529,2.1115 0,3.1708 -0.5277,1.0557 1.2344,1.2317 6.5182,1.0557 5.2852,-0.1763 7.9279,-0.1763 10.5703,-0.1763 2.6418,0 2.8195,-0.3511 2.8195,1.9367 0,2.2911 0.35,19.0283 0.1763,21.4921 -0.1763,2.4674 -0.354,3.1707 -2.9958,3.1707 -2.6424,0 -5.4618,0.7047 -2.995,1.0561 2.466,0.352 4.9328,0.176 6.5185,0.176 1.5837,0 1.5837,-1.2321 1.056,-4.4028 -0.528,-3.1718 -0.528,-12.6825 -0.1763,-14.9735 0.3524,-2.2878 -0.3517,-7.0427 0.1763,-8.4553 0.5277,-1.4068 -0.704,-2.2911 -4.2271,-1.5831 -3.5225,0.7037 -8.456,0.3477 -10.571,0.3477 -2.1131,0 -5.2839,0.708 -5.2839,-0.8797 0,-1.5841 -1.5899,-3.4031 1.5825,-3.3736 3.1737,0.0259 4.7597,-0.1502 6.3445,-0.1502 1.5857,0 0.7043,-0.8797 -2.1141,-0.8797 z" />
      <path
         id="path136"
         style="fill:#1b1918;fill-rule:evenodd"
         d="m 226.3407,206.8739 c -0.3182,3.506 0.1774,12.1541 0.1774,15.1498 0,2.9912 1.5853,6.6903 1.4087,1.2321 -0.1764,-5.4642 0,-10.9224 0,-13.7418 0,-2.8165 0.8797,-4.7562 -0.528,-5.8109 -1.4098,-1.0603 -0.8807,1.2307 -1.0581,3.1708 z" />
      <path
         id="path138"
         style="fill:#1b1918;fill-rule:evenodd"
         d="m 230.2162,229.9503 c -2.9761,-0.3353 -4.7552,0.1754 -5.4602,0.1754 -0.7047,0 0,1.584 0,2.8204 0,1.2307 -0.353,1.9354 -0.7047,3.3425 -0.3517,1.4123 1.4097,1.7637 4.4045,1.4123 2.9944,-0.352 7.5746,-0.352 9.512,-0.352 1.9377,0 4.9325,-1.4117 0.8813,-1.4117 -4.0524,0 -8.1039,-0.5283 -10.3933,-0.5283 -2.2907,0 -2.1151,-0.5274 -2.4668,-2.4628 -0.3516,-1.9397 -0.528,-2.1161 2.1138,-1.9397 2.6424,0.1747 3.6991,-0.8807 2.1134,-1.0561 z" />
      <g
         id="Layer1004">
        <path
           id="path140"
           style="fill:#1b1918;fill-rule:evenodd"
           d="m 264.2173,194.3638 c -3.1721,0 -5.4615,-0.3513 -6.6955,0 -1.2337,0.3521 -0.8798,1.2318 -0.7034,2.4684 0.1753,1.2308 0.5277,2.1115 0,3.1708 -0.5303,1.0557 1.2314,1.2317 6.5162,1.0557 5.2858,-0.1763 7.9292,-0.1763 10.5687,-0.1763 2.6434,0 2.8194,-0.3511 2.8194,1.9367 0,2.2911 0.3517,19.0283 0.1764,21.4921 -0.1764,2.4674 -0.3524,3.1707 -2.9958,3.1707 -2.6395,0 -5.4589,0.7047 -2.9934,1.0561 2.4654,0.352 4.9331,0.176 6.5185,0.176 1.586,0 1.586,-1.2321 1.056,-4.4028 -0.528,-3.1718 -0.528,-12.6825 -0.1756,-14.9735 0.354,-2.2878 -0.3524,-7.0427 0.1756,-8.4553 0.53,-1.4068 -0.706,-2.2911 -4.2271,-1.5831 -3.5238,0.7037 -8.4569,0.3477 -10.568,0.3477 -2.1161,0 -5.2875,0.708 -5.2875,-0.8797 0,-1.5841 -1.5903,-3.4031 1.5837,-3.3736 3.1738,0.0259 4.7595,-0.1502 6.3426,-0.1502 1.5883,0 0.704,-0.8797 -2.1108,-0.8797 z" />
        <path
           id="path142"
           style="fill:#1b1918;fill-rule:evenodd"
           d="m 257.8741,206.8739 c -0.3179,3.506 0.1757,12.1541 0.1757,15.1498 0,2.9912 1.588,6.6903 1.4097,1.2321 -0.178,-5.4642 0,-10.9224 0,-13.7418 0,-2.8165 0.88,-4.7562 -0.5297,-5.8109 -1.408,-1.0603 -0.88,1.2307 -1.0557,3.1708 z" />
        <path
           id="path144"
           style="fill:#1b1918;fill-rule:evenodd"
           d="m 261.7492,229.9503 c -2.9764,-0.3353 -4.7555,0.1754 -5.4611,0.1754 -0.7041,0 0,1.584 0,2.8204 0,1.2307 -0.354,1.9354 -0.7041,3.3425 -0.3517,1.4123 1.4097,1.7637 4.4032,1.4123 2.9957,-0.352 7.5775,-0.352 9.5126,-0.352 1.9401,0 4.9335,-1.4117 0.882,-1.4117 -4.0537,0 -8.1045,-0.5283 -10.3946,-0.5283 -2.2894,0 -2.1131,-0.5274 -2.4654,-2.4628 -0.3517,-1.9397 -0.5281,-2.1161 2.1137,-1.9397 2.6418,0.1747 3.6991,-0.8807 2.1137,-1.0561 z" />
      </g>
      <g
         id="Layer1005">
        <path
           id="path147"
           style="fill:#1b1918;fill-rule:evenodd"
           d="m 409.2721,194.3638 c -3.1708,0 -5.4585,-0.3513 -6.6949,0 -1.232,0.3521 -0.8797,1.2318 -0.7037,2.4684 0.1764,1.2308 0.5274,2.1115 0,3.1708 -0.5283,1.0557 1.2344,1.2317 6.5166,1.0557 5.2858,-0.1763 7.9292,-0.1763 10.5704,-0.1763 2.642,0 2.8171,-0.3511 2.8171,1.9367 0,2.2911 0.3523,19.0283 0.1763,21.4921 -0.1763,2.4674 -0.3514,3.1707 -2.9934,3.1707 -2.6412,0 -5.4609,0.7047 -2.9935,1.0561 2.4638,0.352 4.9312,0.176 6.5176,0.176 1.5853,0 1.5853,-1.2321 1.058,-4.4028 -0.5307,-3.1718 -0.5307,-12.6825 -0.1764,-14.9735 0.3514,-2.2878 -0.3543,-7.0427 0.1764,-8.4553 0.5273,-1.4068 -0.707,-2.2911 -4.2278,-1.5831 -3.5228,0.7037 -8.4563,0.3477 -10.57,0.3477 -2.1161,0 -5.2878,0.708 -5.2878,-0.8797 0,-1.5841 -1.5877,-3.4031 1.584,-3.3736 3.1754,0.0259 4.7595,-0.1502 6.3449,-0.1502 1.5863,0 0.7056,-0.8797 -2.1138,-0.8797 z" />
        <path
           id="path149"
           style="fill:#1b1918;fill-rule:evenodd"
           d="m 402.9296,206.8739 c -0.3173,3.506 0.1783,12.1541 0.1783,15.1498 0,2.9912 1.5831,6.6903 1.4094,1.2321 -0.1764,-5.4642 0,-10.9224 0,-13.7418 0,-2.8165 0.8794,-4.7562 -0.5297,-5.8109 -1.4104,-1.0603 -0.8797,1.2307 -1.058,3.1708 z" />
        <path
           id="path151"
           style="fill:#1b1918;fill-rule:evenodd"
           d="m 406.8047,229.9503 c -2.9741,-0.3353 -4.7548,0.1754 -5.4595,0.1754 -0.708,0 0,1.584 0,2.8204 0,1.2307 -0.3533,1.9354 -0.708,3.3425 -0.349,1.4123 1.4127,1.7637 4.4084,1.4123 2.9935,-0.352 7.5746,-0.352 9.512,-0.352 1.9377,0 4.9335,-1.4117 0.8797,-1.4117 -4.0514,0 -8.1006,-0.5283 -10.3917,-0.5283 -2.2923,0 -2.116,-0.5274 -2.4684,-2.4628 -0.3513,-1.9397 -0.5273,-2.1161 2.1138,-1.9397 2.6457,0.1747 3.6991,-0.8807 2.1137,-1.0561 z" />
      </g>
      <g
         id="Layer1006">
        <path
           id="path154"
           style="fill:#1b1918;fill-rule:evenodd"
           d="m 439.342,194.3638 c -3.1698,0 -5.4618,-0.3513 -6.6926,0 -1.2343,0.3521 -0.8797,1.2318 -0.7046,2.4684 0.176,1.2308 0.5283,2.1115 0,3.1708 -0.5297,1.0557 1.2317,1.2317 6.5175,1.0557 5.2845,-0.1763 7.9289,-0.1763 10.5677,-0.1763 2.6438,0 2.8198,-0.3511 2.8198,1.9367 0,2.2911 0.3523,19.0283 0.1763,21.4921 -0.1763,2.4674 -0.3523,3.1707 -2.9961,3.1707 -2.6388,0 -5.4592,0.7047 -2.9931,1.0561 2.4661,0.352 4.9332,0.176 6.5162,0.176 1.5887,0 1.5887,-1.2321 1.0584,-4.4028 -0.5274,-3.1718 -0.5274,-12.6825 -0.1763,-14.9735 0.3546,-2.2878 -0.3511,-7.0427 0.1763,-8.4553 0.5303,-1.4068 -0.706,-2.2911 -4.2255,-1.5831 -3.5254,0.7037 -8.4586,0.3477 -10.5704,0.3477 -2.1147,0 -5.2868,0.708 -5.2868,-0.8797 0,-1.5841 -1.5896,-3.4031 1.5831,-3.3736 3.1744,0.0259 4.7595,-0.1502 6.3462,-0.1502 1.5831,0 0.7033,-0.8797 -2.1161,-0.8797 z" />
        <path
           id="path156"
           style="fill:#1b1918;fill-rule:evenodd"
           d="m 433.0005,206.8739 c -0.3173,3.506 0.176,12.1541 0.176,15.1498 0,2.9912 1.5867,6.6903 1.4103,1.2321 -0.176,-5.4642 0,-10.9224 0,-13.7418 0,-2.8165 0.8798,-4.7562 -0.5306,-5.8109 -1.4068,-1.0603 -0.8797,1.2307 -1.0557,3.1708 z" />
        <path
           id="path158"
           style="fill:#1b1918;fill-rule:evenodd"
           d="m 436.8769,229.9503 c -2.9764,-0.3353 -4.7561,0.1754 -5.4618,0.1754 -0.7057,0 0,1.584 0,2.8204 0,1.2307 -0.3533,1.9354 -0.7057,3.3425 -0.3523,1.4123 1.4114,1.7637 4.4025,1.4123 2.9958,-0.352 7.5792,-0.352 9.5156,-0.352 1.94,0 4.9325,-1.4117 0.8797,-1.4117 -4.0491,0 -8.1029,-0.5283 -10.3953,-0.5283 -2.2864,0 -2.1114,-0.5274 -2.4625,-2.4628 -0.3523,-1.9397 -0.5286,-2.1161 2.1138,-1.9397 2.6411,0.1747 3.6991,-0.8807 2.1137,-1.0561 z" />
      </g>
      <g
         id="Layer1007">
        <path
           id="path161"
           style="fill:#1b1918;fill-rule:evenodd"
           d="m 439.342,150.0995 c -3.1698,0 -5.4618,-0.3258 -6.6926,0 -1.2343,0.3265 -0.8797,1.1416 -0.7046,2.2832 0.176,1.1416 0.5283,1.9613 0,2.94 -0.5297,0.9784 1.2317,1.1416 6.5175,0.9784 5.2845,-0.1632 7.9289,-0.1632 10.5677,-0.1632 2.6438,0 2.8198,-0.3258 2.8198,1.7942 0,2.1199 0.3523,17.6215 0.1763,19.9089 -0.1763,2.2832 -0.3523,2.9354 -2.9961,2.9354 -2.6388,0 -5.4592,0.6526 -2.9931,0.9784 2.4661,0.3265 4.9332,0.1632 6.5162,0.1632 1.5887,0 1.5887,-1.1416 1.0584,-4.077 -0.5274,-2.9397 -0.5274,-11.7506 -0.1763,-13.8706 0.3546,-2.1245 -0.3511,-6.5277 0.1763,-7.8325 0.5303,-1.3088 -0.706,-2.6909 -4.2255,-2.038 -3.5254,0.6519 -8.4586,0.33 -10.5704,0.33 -2.1147,0 -4.9072,1.219 -4.9072,-0.2527 0,-1.468 -1.59,-2.9613 1.5821,-2.9361 3.175,0.0262 4.3809,-0.137 5.9676,-0.137 1.5831,0 0.7033,-1.0046 -2.1161,-1.0046 z" />
        <path
           id="path163"
           style="fill:#1b1918;fill-rule:evenodd"
           d="m 433.0005,161.6872 c -0.3173,3.2488 0.176,11.2574 0.176,14.0293 0,2.7768 1.5867,6.2015 1.4103,1.1415 -0.176,-5.055 0,-10.115 0,-12.7243 0,-2.6097 0.8798,-4.4035 -0.5306,-5.3865 -1.4068,-0.9784 -0.8797,1.1416 -1.0557,2.94 z" />
        <path
           id="path165"
           style="fill:#1b1918;fill-rule:evenodd"
           d="m 436.8769,183.0596 c -2.9764,-0.3048 -4.7561,0.1633 -5.4618,0.1633 -0.7057,0 0,1.4716 0,2.6135 0,1.1416 -0.3533,1.7942 -0.7057,3.0984 -0.3523,1.3051 1.4114,1.6316 4.4025,1.3051 2.9958,-0.3261 7.5792,-0.3261 9.5156,-0.3261 1.94,0 4.9325,-1.3055 0.8797,-1.3055 -4.0491,0 -8.1029,-0.4887 -10.3953,-0.4887 -2.2864,0 -2.1114,-0.489 -2.4625,-2.2832 -0.3523,-1.7984 -0.5286,-1.9616 2.1138,-1.7984 2.6411,0.1632 3.6991,-0.8151 2.1137,-0.9784 z" />
      </g>
      <g
         id="Layer1008">
        <path
           id="path168"
           style="fill:#1b1918;fill-rule:evenodd"
           d="m 409.6504,150.0995 c -3.1718,0 -5.4596,-0.3258 -6.6949,0 -1.2321,0.3265 -0.8797,1.1416 -0.7047,2.2832 0.1763,1.1416 0.5283,1.9613 0,2.94 -0.5274,0.9784 1.2321,1.1416 6.5176,0.9784 5.2845,-0.1632 7.9292,-0.1632 10.5703,-0.1632 2.6411,0 2.8174,-0.3258 2.8174,1.7942 0,2.1199 0.3543,17.6215 0.176,19.9089 -0.176,2.2832 -0.3523,2.9354 -2.9934,2.9354 -2.6411,0 -5.4618,0.6526 -2.9958,0.9784 2.4674,0.3265 4.9335,0.1632 6.5212,0.1632 1.5841,0 1.5841,-1.1416 1.0554,-4.077 -0.5293,-2.9397 -0.5293,-11.7506 -0.176,-13.8706 0.3523,-2.1245 -0.3533,-6.5277 0.176,-7.8325 0.5287,-1.3088 -0.7057,-2.6909 -4.2275,-2.038 -3.5231,0.6519 -8.4585,0.33 -10.57,0.33 -2.115,0 -4.9076,1.219 -4.9076,-0.2527 0,-1.468 -1.5896,-2.9613 1.5821,-2.9361 3.1751,0.0262 4.3812,-0.137 5.9676,-0.137 1.5854,0 0.7034,-1.0046 -2.1137,-1.0046 z" />
        <path
           id="path170"
           style="fill:#1b1918;fill-rule:evenodd"
           d="m 403.3088,161.6872 c -0.3196,3.2488 0.1741,11.2574 0.1741,14.0293 0,2.7768 1.5876,6.2015 1.4103,1.1415 -0.1763,-5.055 0,-10.115 0,-12.7243 0,-2.6097 0.8794,-4.4035 -0.5287,-5.3865 -1.409,-0.9784 -0.8816,1.1416 -1.0557,2.94 z" />
        <path
           id="path172"
           style="fill:#1b1918;fill-rule:evenodd"
           d="m 407.1843,183.0596 c -2.9777,-0.3048 -4.7572,0.1633 -5.4609,0.1633 -0.7056,0 0,1.4716 0,2.6135 0,1.1416 -0.3543,1.7942 -0.7056,3.0984 -0.3544,1.3051 1.4093,1.6316 4.4051,1.3051 2.9911,-0.3261 7.5742,-0.3261 9.5143,-0.3261 1.9354,0 4.9308,-1.3055 0.8774,-1.3055 -4.0505,0 -8.102,-0.4887 -10.3917,-0.4887 -2.2924,0 -2.1141,-0.489 -2.4674,-2.2832 -0.3524,-1.7984 -0.5284,-1.9616 2.115,-1.7984 2.6421,0.1632 3.6979,-0.8151 2.1138,-0.9784 z" />
      </g>
      <g
         id="Layer1009">
        <path
           id="path175"
           style="fill:#1b1918;fill-rule:evenodd"
           d="m 371.8279,150.0995 c -3.1695,0 -5.4586,-0.3258 -6.6903,0 -1.2366,0.3265 -0.8843,1.1416 -0.708,2.2832 0.1761,1.1416 0.5317,1.9613 0,2.94 -0.5286,0.9784 1.2331,1.1416 6.5186,0.9784 5.2835,-0.1632 7.9269,-0.1632 10.5703,-0.1632 2.6408,0 2.8191,-0.3258 2.8191,1.7942 0,2.1199 0.3501,17.6215 0.1763,19.9089 -0.1763,2.2832 -0.3546,2.9354 -2.9954,2.9354 -2.6434,0 -5.4631,0.6526 -2.9957,0.9784 2.4661,0.3265 4.9308,0.1632 6.5182,0.1632 1.5844,0 1.5844,-1.1416 1.056,-4.077 -0.5273,-2.9397 -0.5273,-11.7506 -0.175,-13.8706 0.351,-2.1245 -0.3523,-6.5277 0.175,-7.8325 0.5284,-1.3088 -0.7037,-2.6909 -4.2261,-2.038 -3.5241,0.6519 -8.4576,0.33 -10.5704,0.33 -2.116,0 -4.9063,1.219 -4.9063,-0.2527 0,-1.468 -1.5919,-2.9613 1.5822,-2.9361 3.174,0.0262 4.3798,-0.137 5.9675,-0.137 1.5831,0 0.7037,-1.0046 -2.116,-1.0046 z" />
        <path
           id="path177"
           style="fill:#1b1918;fill-rule:evenodd"
           d="m 365.4877,161.6872 c -0.3209,3.2488 0.175,11.2574 0.175,14.0293 0,2.7768 1.5864,6.2015 1.4103,1.1415 -0.1763,-5.055 0,-10.115 0,-12.7243 0,-2.6097 0.8794,-4.4035 -0.5283,-5.3865 -1.4071,-0.9784 -0.882,1.1416 -1.057,2.94 z" />
        <path
           id="path179"
           style="fill:#1b1918;fill-rule:evenodd"
           d="m 369.3631,183.0596 c -2.9767,-0.3048 -4.7574,0.1633 -5.4621,0.1633 -0.7034,0 0,1.4716 0,2.6135 0,1.1416 -0.3534,1.7942 -0.7034,3.0984 -0.3524,1.3051 1.4081,1.6316 4.4025,1.3051 2.9961,-0.3261 7.5759,-0.3261 9.5156,-0.3261 1.9354,0 4.9312,-1.3055 0.8774,-1.3055 -4.0492,0 -8.1006,-0.4887 -10.393,-0.4887 -2.2865,0 -2.1124,-0.489 -2.4625,-2.2832 -0.3546,-1.7984 -0.5319,-1.9616 2.1115,-1.7984 2.6434,0.1632 3.6991,-0.8151 2.114,-0.9784 z" />
      </g>
      <g
         id="Layer1010">
        <path
           id="path182"
           style="fill:#1b1918;fill-rule:evenodd"
           d="m 335.7973,150.0995 c -3.1675,0 -5.4586,-0.3258 -6.6906,0 -1.2317,0.3265 -0.884,1.1416 -0.708,2.2832 0.1764,1.1416 0.532,1.9613 0,2.94 -0.5237,0.9784 1.2354,1.1416 6.5189,0.9784 5.2878,-0.1632 7.9266,-0.1632 10.57,-0.1632 2.6447,0 2.8197,-0.3258 2.8197,1.7942 0,2.1199 0.3524,17.6215 0.176,19.9089 -0.176,2.2832 -0.351,2.9354 -2.9957,2.9354 -2.6434,0 -5.4582,0.6526 -2.9957,0.9784 2.4687,0.3265 4.9311,0.1632 6.5201,0.1632 1.5828,0 1.5828,-1.1416 1.0558,-4.077 -0.5287,-2.9397 -0.5287,-11.7506 -0.1718,-13.8706 0.3464,-2.1245 -0.3569,-6.5277 0.1718,-7.8325 0.527,-1.3088 -0.7047,-2.6909 -4.2279,-2.038 -3.5231,0.6519 -8.4539,0.33 -10.57,0.33 -2.1117,0 -4.9053,1.219 -4.9053,-0.2527 0,-1.468 -1.5886,-2.9613 1.5831,-2.9361 3.1764,0.0262 4.3825,-0.137 5.9653,-0.137 1.5834,0 0.7037,-1.0046 -2.1157,-1.0046 z" />
        <path
           id="path184"
           style="fill:#1b1918;fill-rule:evenodd"
           d="m 329.459,161.6872 c -0.3182,3.2488 0.1751,11.2574 0.1751,14.0293 0,2.7768 1.5844,6.2015 1.408,1.1415 -0.176,-5.055 0,-10.115 0,-12.7243 0,-2.6097 0.8797,-4.4035 -0.5273,-5.3865 -1.4081,-0.9784 -0.8807,1.1416 -1.0558,2.94 z" />
        <path
           id="path186"
           style="fill:#1b1918;fill-rule:evenodd"
           d="m 333.3345,183.0596 c -2.9787,-0.3048 -4.7594,0.1633 -5.4595,0.1633 -0.708,0 0,1.4716 0,2.6135 0,1.1416 -0.3557,1.7942 -0.708,3.0984 -0.3524,1.3051 1.4081,1.6316 4.4038,1.3051 2.9944,-0.3261 7.5743,-0.3261 9.5143,-0.3261 1.9354,0 4.9309,-1.3055 0.8794,-1.3055 -4.0515,0 -8.103,-0.4887 -10.3937,-0.4887 -2.2878,0 -2.1118,-0.489 -2.4641,-2.2832 -0.3524,-1.7984 -0.5316,-1.9616 2.1118,-1.7984 2.643,0.1632 3.6991,-0.8151 2.116,-0.9784 z" />
      </g>
      <g
         id="Layer1011">
        <path
           id="path189"
           style="fill:#1b1918;fill-rule:evenodd"
           d="m 299.7733,150.0995 c -3.1715,0 -5.4592,-0.3258 -6.6952,0 -1.2318,0.3265 -0.8794,1.1416 -0.7037,2.2832 0.176,1.1416 0.5277,1.9613 0,2.94 -0.5281,0.9784 1.2317,1.1416 6.5169,0.9784 5.2851,-0.1632 7.9289,-0.1632 10.5683,-0.1632 2.6434,0 2.8198,-0.3258 2.8198,1.7942 0,2.1199 0.3517,17.6215 0.1757,19.9089 -0.1757,2.2832 -0.3521,2.9354 -2.9955,2.9354 -2.6394,0 -5.4589,0.6526 -2.9931,0.9784 2.4654,0.3265 4.9325,0.1632 6.5185,0.1632 1.5858,0 1.5858,-1.1416 1.0558,-4.077 -0.5277,-2.9397 -0.5277,-11.7506 -0.1757,-13.8706 0.354,-2.1245 -0.352,-6.5277 0.1757,-7.8325 0.53,-1.3088 -0.7057,-2.6909 -4.2249,-2.038 -3.5257,0.6519 -8.4592,0.33 -10.5707,0.33 -2.1157,0 -4.9072,1.219 -4.9072,-0.2527 0,-1.468 -1.59,-2.9613 1.5814,-2.9361 3.1757,0.0262 4.3816,-0.137 5.9676,-0.137 1.5857,0 0.704,-1.0046 -2.1137,-1.0046 z" />
        <path
           id="path191"
           style="fill:#1b1918;fill-rule:evenodd"
           d="m 293.4301,161.6872 c -0.3173,3.2488 0.176,11.2574 0.176,14.0293 0,2.7768 1.586,6.2015 1.4097,1.1415 -0.176,-5.055 0,-10.115 0,-12.7243 0,-2.6097 0.8797,-4.4035 -0.53,-5.3865 -1.4077,-0.9784 -0.8797,1.1416 -1.0557,2.94 z" />
        <path
           id="path193"
           style="fill:#1b1918;fill-rule:evenodd"
           d="m 297.3052,183.0596 c -2.9757,-0.3048 -4.7548,0.1633 -5.4589,0.1633 -0.7079,0 0,1.4716 0,2.6135 0,1.1416 -0.3556,1.7942 -0.7079,3.0984 -0.3517,1.3051 1.412,1.6316 4.4054,1.3051 2.9935,-0.3261 7.5769,-0.3261 9.5143,-0.3261 1.9377,0 4.9312,-1.3055 0.8781,-1.3055 -4.0492,0 -8.103,-0.4887 -10.3924,-0.4887 -2.2894,0 -2.1137,-0.489 -2.4657,-2.2832 -0.3517,-1.7984 -0.5277,-1.9616 2.114,-1.7984 2.6411,0.1632 3.6992,-0.8151 2.1131,-0.9784 z" />
      </g>
      <g
         id="Layer1012">
        <path
           id="path196"
           style="fill:#1b1918;fill-rule:evenodd"
           d="m 263.6503,150.0995 c -3.1711,0 -5.4589,-0.3258 -6.6926,0 -1.2341,0.3265 -0.8817,1.1416 -0.7064,2.2832 0.1764,1.1416 0.5304,1.9613 0,2.94 -0.5277,0.9784 1.2344,1.1416 6.5192,0.9784 5.2832,-0.1632 7.927,-0.1632 10.5681,-0.1632 2.6417,0 2.8194,-0.3258 2.8194,1.7942 0,2.1199 0.3523,17.6215 0.174,19.9089 -0.174,2.2832 -0.3517,2.9354 -2.9934,2.9354 -2.6411,0 -5.4605,0.6526 -2.9935,0.9784 2.4655,0.3265 4.9312,0.1632 6.5195,0.1632 1.5835,0 1.5835,-1.1416 1.0558,-4.077 -0.5281,-2.9397 -0.5281,-11.7506 -0.1764,-13.8706 0.3524,-2.1245 -0.3517,-6.5277 0.1764,-7.8325 0.5277,-1.3088 -0.7064,-2.6909 -4.2278,-2.038 -3.5232,0.6519 -8.4563,0.33 -10.57,0.33 -2.1158,0 -4.9053,1.219 -4.9053,-0.2527 0,-1.468 -1.592,-2.9613 1.5814,-2.9361 3.1734,0.0262 4.3796,-0.137 5.9676,-0.137 1.5837,0 0.7037,-1.0046 -2.116,-1.0046 z" />
        <path
           id="path198"
           style="fill:#1b1918;fill-rule:evenodd"
           d="m 257.3094,161.6872 c -0.3196,3.2488 0.1763,11.2574 0.1763,14.0293 0,2.7768 1.5854,6.2015 1.4097,1.1415 -0.1763,-5.055 0,-10.115 0,-12.7243 0,-2.6097 0.8797,-4.4035 -0.53,-5.3865 -1.4077,-0.9784 -0.8797,1.1416 -1.056,2.94 z" />
        <path
           id="path200"
           style="fill:#1b1918;fill-rule:evenodd"
           d="m 261.1848,183.0596 c -2.9761,-0.3048 -4.7571,0.1633 -5.4612,0.1633 -0.706,0 0,1.4716 0,2.6135 0,1.1416 -0.3543,1.7942 -0.706,3.0984 -0.3516,1.3051 1.4101,1.6316 4.4058,1.3051 2.9935,-0.3261 7.5743,-0.3261 9.5143,-0.3261 1.9355,0 4.9312,-1.3055 0.8778,-1.3055 -4.0492,0 -8.1027,-0.4887 -10.3921,-0.4887 -2.29,0 -2.114,-0.489 -2.4657,-2.2832 -0.354,-1.7984 -0.53,-1.9616 2.1134,-1.7984 2.6417,0.1632 3.6994,-0.8151 2.1137,-0.9784 z" />
      </g>
      <g
         id="Layer1013">
        <path
           id="path203"
           style="fill:#1b1918;fill-rule:evenodd"
           d="m 232.8245,150.0995 c -3.1714,0 -5.4602,-0.3258 -6.6939,0 -1.233,0.3265 -0.8807,1.1416 -0.705,2.2832 0.175,1.1416 0.529,1.9613 0,2.94 -0.528,0.9784 1.2331,1.1416 6.5182,0.9784 5.2852,-0.1632 7.9279,-0.1632 10.5691,-0.1632 2.6404,0 2.8184,-0.3258 2.8184,1.7942 0,2.1199 0.3543,17.6215 0.176,19.9089 -0.176,2.2832 -0.354,2.9354 -2.9944,2.9354 -2.6412,0 -5.4602,0.6526 -2.9945,0.9784 2.4654,0.3265 4.9332,0.1632 6.5192,0.1632 1.5838,0 1.5838,-1.1416 1.0557,-4.077 -0.528,-2.9397 -0.528,-11.7506 -0.1763,-13.8706 0.3523,-2.1245 -0.3517,-6.5277 0.1763,-7.8325 0.5281,-1.3088 -0.704,-2.6909 -4.2278,-2.038 -3.5228,0.6519 -8.4562,0.33 -10.569,0.33 -2.1154,0 -4.9073,1.219 -4.9073,-0.2527 0,-1.468 -1.5899,-2.9613 1.5838,-2.9361 3.1734,0.0262 4.3805,-0.137 5.9653,-0.137 1.5854,0 0.7047,-1.0046 -2.1138,-1.0046 z" />
        <path
           id="path205"
           style="fill:#1b1918;fill-rule:evenodd"
           d="m 226.4823,161.6872 c -0.3182,3.2488 0.1764,11.2574 0.1764,14.0293 0,2.7768 1.5853,6.2015 1.4097,1.1415 -0.176,-5.055 0,-10.115 0,-12.7243 0,-2.6097 0.8797,-4.4035 -0.529,-5.3865 -1.4088,-0.9784 -0.8807,1.1416 -1.0571,2.94 z" />
        <path
           id="path207"
           style="fill:#1b1918;fill-rule:evenodd"
           d="m 230.3578,183.0596 c -2.9758,-0.3048 -4.7572,0.1633 -5.4602,0.1633 -0.7057,0 0,1.4716 0,2.6135 0,1.1416 -0.354,1.7942 -0.7057,3.0984 -0.3523,1.3051 1.4087,1.6316 4.4045,1.3051 2.9944,-0.3261 7.5756,-0.3261 9.5143,-0.3261 1.9367,0 4.9312,-1.3055 0.879,-1.3055 -4.0514,0 -8.1029,-0.4887 -10.3933,-0.4887 -2.2888,0 -2.1141,-0.489 -2.4658,-2.2832 -0.3526,-1.7984 -0.53,-1.9616 2.1134,-1.7984 2.6428,0.1632 3.6998,-0.8151 2.1138,-0.9784 z" />
      </g>
      <g
         id="Layer1014">
        <path
           id="path210"
           style="fill:#1b1918;fill-rule:evenodd"
           d="m 372.7718,194.3638 c -3.1707,0 -5.4582,-0.3513 -6.6902,0 -1.2367,0.3521 -0.8843,1.2318 -0.708,2.4684 0.176,1.2308 0.5297,2.1115 0,3.1708 -0.5287,1.0557 1.234,1.2317 6.5189,1.0557 5.2832,-0.1763 7.9266,-0.1763 10.57,-0.1763 2.6417,0 2.8191,-0.3511 2.8191,1.9367 0,2.2911 0.3523,19.0283 0.174,21.4921 -0.174,2.4674 -0.3514,3.1707 -2.9931,3.1707 -2.6434,0 -5.4632,0.7047 -2.9958,1.0561 2.4684,0.352 4.9309,0.176 6.5195,0.176 1.5831,0 1.5831,-1.2321 1.0558,-4.4028 -0.5284,-3.1718 -0.5284,-12.6825 -0.176,-14.9735 0.351,-2.2878 -0.3547,-7.0427 0.176,-8.4553 0.5273,-1.4068 -0.7047,-2.2911 -4.2275,-1.5831 -3.5228,0.7037 -8.454,0.3477 -10.57,0.3477 -2.1138,0 -5.2832,0.708 -5.2832,-0.8797 0,-1.5841 -1.5923,-3.4031 1.5818,-3.3736 3.173,0.0259 4.7594,-0.1502 6.3448,-0.1502 1.5854,0 0.7037,-0.8797 -2.1161,-0.8797 z" />
        <path
           id="path212"
           style="fill:#1b1918;fill-rule:evenodd"
           d="m 366.4316,206.8739 c -0.3196,3.506 0.1557,7.6139 0.1557,10.6093 0,2.9912 1.589,6.6949 1.4104,1.2308 -0.176,-5.4579 0.0193,-6.3806 0.0193,-9.2 0,-2.8165 0.8794,-4.7562 -0.5274,-5.8109 -1.408,-1.0603 -0.8807,1.2307 -1.058,3.1708 z" />
      </g>
      <g
         id="Layer1015">
        <path
           id="path215"
           style="fill:#1b1918;fill-rule:evenodd"
           d="m 313.3092,217.4193 c 0.1478,-3.3697 0.0387,-6.8204 0.2321,-8.0816 0.3516,-2.2878 -0.3524,-7.0427 0.1753,-8.4553 0.528,-1.4068 -0.7034,-2.2911 -4.2268,-1.5831 -3.5238,0.7037 -8.455,0.3477 -10.5704,0.3477 -2.1137,0 -5.2854,0.708 -5.2854,-0.8797 0,-1.5841 -1.59,-3.4031 1.5834,-3.3736 3.1744,0.0259 4.7597,-0.1502 6.3455,-0.1502 1.5837,0 0.704,-0.8797 -2.1154,-0.8797 -3.1721,0 -5.4589,-0.3513 -6.6933,0 -1.2337,0.3521 -0.882,1.2318 -0.7056,2.4684 0.1753,1.2308 0.5293,2.1115 0,3.1708 -0.5281,1.0557 1.2333,1.2317 6.5185,1.0557 5.2852,-0.1763 7.9269,-0.1763 10.5707,-0.1763 2.6414,0 2.8174,-0.3511 2.8174,1.9367 0,1.3379 0.2639,7.6126 0.1868,13.0892 -0.0475,3.394 1.06,3.9735 1.1672,1.511 z" />
        <path
           id="path217"
           style="fill:#1b1918;fill-rule:evenodd"
           d="m 293.1082,206.8739 c -0.3218,3.506 0.1737,12.1541 0.1737,15.1498 0,2.9912 1.5861,6.6903 1.4101,1.2321 -0.1757,-5.4642 0,-10.9224 0,-13.7418 0,-2.8165 0.8794,-4.7562 -0.5281,-5.8109 -1.4097,-1.0603 -0.8797,1.2307 -1.0557,3.1708 z" />
        <path
           id="path219"
           style="fill:#1b1918;fill-rule:evenodd"
           d="m 296.9817,229.9503 c -2.9764,-0.3353 -4.7578,0.1754 -5.4612,0.1754 -0.704,0 0,1.584 0,2.8204 0,1.2307 -0.3523,1.9354 -0.704,3.3425 -0.3517,1.4123 1.4074,1.7637 4.4032,1.4123 2.9957,-0.352 7.5752,-0.352 9.5146,-0.352 1.9357,0 4.9315,-1.4117 0.88,-1.4117 -4.0514,0 -8.1046,-0.5283 -10.3946,-0.5283 -2.2895,0 -2.1115,-0.5274 -2.4655,-2.4628 -0.3516,-1.9397 -0.5303,-2.1161 2.1138,-1.9397 2.6417,0.1747 3.6991,-0.8807 2.1137,-1.0561 z" />
      </g>
      <path
         id="path222"
         style="fill:#1b1918;fill-rule:evenodd"
         d="m 372.4241,235.5682 c 3.2101,0.2651 5.8627,0.3772 7.5644,0.3772 1.7018,0 0.569,0.7552 -2.6457,0.944 -3.217,0.1894 -5.1072,0.3825 -5.8627,0.3825 -0.7587,0 -1.3258,-1.8925 0.944,-1.7037 z" />
      <g
         id="Layer1016">
        <g
           id="Layer1017">
          <path
             id="path224"
             style="fill:#1b1918;fill-rule:evenodd"
             d="m 187.5412,235.7737 c 13.4232,-27.634 -30.846,-31.007 -28.5281,-4.3521 0.8007,9.2108 9.4677,18.5232 22.9499,20.6346 15.3695,2.4029 36.3911,-3.3389 52.165,-8.3851 29.6127,-9.4759 58.4309,-7.8974 74.6836,10.866 0,0 5.4589,0.7417 5.4589,-0.2881 0,-1.0341 -0.3431,-5.8489 -0.2297,-7.6818 0.114,-1.8371 -0.689,-2.6388 -2.1783,-1.9489 -1.4887,0.6877 -4.1282,0.4596 -5.2183,-0.4198 -11.8772,-9.553 -34.3974,-16.1236 -63.9383,-6.9309 -35.2426,10.9686 -62.363,22.1698 -76.9707,2.038 -7.8817,-11.8237 0.9626,-21.5569 8.1144,-22.2511 9.5041,-0.9315 17.8768,6.1491 13.6916,18.7192 z" />
          <path
             id="path226"
             style="fill:#1b1918;fill-rule:evenodd"
             d="m 188.5474,216.1355 c 4.5523,-14.0686 -17.2481,-22.2653 -1.253,-39.6504 7.5598,-8.2187 8.7011,-18.2826 -2.4723,-20.3557 8.2668,5.2874 5.8296,11.137 -0.826,18.6218 -6.6221,7.4504 -9.1042,16.1403 -0.4143,29.7965 -10.3461,-17.7929 -31.7828,-14.2432 -40.556,-6.2058 -14.1101,12.9266 -8.6896,43.0368 17.3816,48.4187 -26.8932,-12.5576 -19.9381,-38.0542 -11.5933,-45.2378 8.3452,-7.1885 30.0912,-9.0177 39.7333,14.6127 z" />
        </g>
        <path
           id="path229"
           style="fill:#1b1918;fill-rule:evenodd"
           d="m 150.7302,249.5246 c -32.1515,-26.8709 -62.7842,-14.5189 -78.2805,-3.6483 -25.0161,17.5441 -33.2613,-6.905 -17.8856,-16.6304 -23.8244,8.6009 -7.7398,37.2391 15.375,23.2181 19.1416,-11.609 39.5389,-26.3597 80.7911,-2.9394 z" />
      </g>
      <g
         id="Layer1018">
        <g
           id="Layer1019">
          <path
             id="path232"
             style="fill:#1b1918;fill-rule:evenodd"
             d="m 493.3006,235.7737 c -13.4235,-27.634 30.8467,-31.007 28.5284,-4.3521 -0.8017,9.2108 -9.4691,18.5232 -22.9516,20.6346 -15.3678,2.4029 -36.3885,-3.3389 -52.1643,-8.3851 -29.6124,-9.4759 -58.4312,-7.8974 -74.683,10.866 0,0 -5.4595,0.7417 -5.4595,-0.2881 0,-1.0341 0.3432,-5.8489 0.2301,-7.6818 -0.1141,-1.8371 0.6889,-2.6388 2.177,-1.9489 1.4919,0.6877 4.1295,0.4596 5.2193,-0.4198 11.8784,-9.553 34.3976,-16.1236 63.9366,-6.9309 35.2426,10.9686 62.362,22.1698 76.9714,2.038 7.8836,-11.8237 -0.9624,-21.5569 -8.1122,-22.2511 -9.5054,-0.9315 -17.8781,6.1491 -13.6922,18.7192 z" />
          <path
             id="path234"
             style="fill:#1b1918;fill-rule:evenodd"
             d="m 492.2943,216.1355 c -4.5526,-14.0686 17.2482,-22.2653 1.2534,-39.6504 -7.5598,-8.2187 -8.7034,-18.2826 2.472,-20.3557 -8.2678,5.2874 -5.8299,11.137 0.8266,18.6218 6.6192,7.4504 9.1046,16.1403 0.4133,29.7965 10.3452,-17.7929 31.7848,-14.2432 40.5563,-6.2058 14.1112,12.9266 8.69,43.0368 -17.3812,48.4187 26.8913,-12.5576 19.9355,-38.0542 11.592,-45.2378 -8.3436,-7.1885 -30.0912,-9.0177 -39.7324,14.6127 z" />
        </g>
        <path
           id="path237"
           style="fill:#1b1918;fill-rule:evenodd"
           d="m 530.1129,249.5246 c 32.1485,-26.8709 62.7828,-14.5189 78.2808,-3.6483 25.0158,17.5441 33.26,-6.905 17.8873,-16.6304 23.8234,8.6009 7.7381,37.2391 -15.377,23.2181 -19.1407,-11.609 -39.5403,-26.3597 -80.7911,-2.9394 z" />
      </g>
    </g>
    <g
       id="Layer1020">
      <path
         id="path241"
         style="fill:#1b1918;fill-rule:evenodd"
         d="m 158.708,287.2389 c 0,5.5884 -1.884,10.3003 -5.6569,14.142 -3.764,3.8404 -8.3127,5.7676 -13.63,5.7676 -3.7489,0 -6.7853,-0.7906 -9.12,-2.3691 -2.3304,-1.5752 -3.4936,-3.5454 -3.4936,-5.9098 0,-3.2872 1.3094,-4.9266 3.9381,-4.9266 2.5637,0 3.843,1.0511 3.843,3.1504 0,0.5916 -0.2104,1.3989 -0.6395,2.4163 -0.4251,1.0164 -0.6398,1.7886 -0.6398,2.3169 0,2.5621 2.0348,3.8417 6.1118,3.8417 3.7421,0 6.7637,-1.2671 9.0639,-3.7941 2.296,-2.5281 3.4484,-5.9958 3.4484,-10.395 0,-6.3088 -1.9079,-11.3685 -5.7188,-15.1797 -3.8154,-3.8063 -8.8132,-5.7112 -14.9948,-5.7112 -4.2084,0 -8.4507,0.9518 -12.7208,2.858 -4.2743,1.9047 -7.9243,4.4927 -10.9479,7.7811 -4.8666,5.1839 -7.6952,12.3416 -8.4821,21.4701 5.9761,1.1167 11.0698,2.9574 15.2714,5.5149 4.5366,-10.3084 9.4953,-18.7454 14.8814,-25.3118 4.0062,-4.8587 6.7316,-7.292 8.1796,-7.292 0.3953,0 0.5907,0.1976 0.5907,0.5929 0,0.1331 -0.8198,0.9223 -2.4638,2.3642 -2.1669,1.9062 -4.0063,3.9397 -5.5189,6.1068 -1.511,2.1678 -3.5152,5.648 -6.0082,10.4425 -2.4979,4.7932 -4.9954,9.651 -7.4933,14.5786 8.1498,5.9092 12.2226,11.9525 12.2226,18.1233 0,3.8066 -1.0518,6.7978 -3.1541,8.961 -2.1032,2.1672 -4.9616,3.2488 -8.5729,3.2488 -6.77,0 -12.4825,-3.2655 -17.1476,-9.8067 -7.6175,6.4373 -15.6254,9.652 -24.0312,9.652 -7.3514,0 -13.2118,-2.2616 -17.5782,-6.7975 -4.3671,-4.5326 -6.5513,-10.7768 -6.5513,-18.7287 0,-4.1373 0.7083,-7.4897 2.1199,-10.0518 1.412,-2.5667 3.1718,-3.845 5.2751,-3.845 2.5617,0 3.8446,1.5448 3.8446,4.6356 0,2.2311 -1.3776,3.6086 -4.1367,4.137 -1.4464,0.2609 -2.8584,0.4936 -4.236,0.6899 -0.9226,0.4599 -1.3822,1.8417 -1.3822,4.1374 0,5.5883 2.7428,10.5962 8.2272,15.0338 5.4848,4.4379 12.0043,6.6519 19.5573,6.6519 6.1714,0 12.214,-2.1668 18.1275,-6.5064 -3.7463,-6.4405 -5.6175,-13.1062 -5.6175,-20.0066 0,-1.7083 0.1029,-3.4507 0.3087,-5.2235 H 92.204 c -4.9332,0 -8.8624,1.1678 -11.789,3.4982 -2.9269,2.334 -4.3903,5.3726 -4.3903,9.1193 0,4.335 1.9698,7.1927 5.9118,8.5749 1.1822,0.3907 2.4631,0.6867 3.843,0.8886 0.8538,0.0645 1.2835,0.2271 1.2835,0.489 0,0.5274 -0.4939,0.7892 -1.4808,0.7892 -4.2678,0 -7.7339,-1.0511 -10.3947,-3.1537 -2.6565,-2.0993 -3.9865,-4.9266 -3.9865,-8.4766 0,-9.0029 6.8925,-13.5015 20.6769,-13.5015 h 2.2638 c 2.2983,-10.1242 7.3262,-18.4022 15.083,-24.8398 7.5536,-6.2396 15.9692,-9.3642 25.2354,-9.3642 7.0318,0 12.8788,1.905 17.5461,5.7205 4.4654,3.6778 6.7018,8.1754 6.7018,13.4969 z m -44.9317,22.2616 c -5.783,-3.0216 -10.7208,-4.764 -14.8129,-5.2235 -0.0685,0.5929 -0.099,1.4464 -0.099,2.5621 0,5.8456 1.554,11.8575 4.6631,18.0341 2.7575,-2.8928 6.1738,-8.017 10.2488,-15.3727 z m 13.5982,19.7674 c 0,-6.8968 -3.8433,-13.043 -11.5277,-18.4291 -4.139,6.6395 -7.9823,11.7254 -11.5317,15.2744 2.3006,3.4202 4.9292,6.1111 7.8837,8.0813 2.7575,1.9049 5.3563,2.8581 7.785,2.8581 4.9269,0 7.3907,-2.5926 7.3907,-7.7847 z" />
      <path
         id="path243"
         style="fill:#1b1918;fill-rule:evenodd"
         d="m 183.2515,325.6625 c 0,0.5929 -1.5323,2.4333 -4.5854,5.5274 -3.0581,3.0904 -5.3065,5.193 -6.7533,6.313 -2.0341,1.5153 -3.8751,2.2665 -5.5146,2.2665 -2.6948,0 -4.0403,-1.6398 -4.0403,-4.9266 0,-0.7172 0.1649,-1.9705 0.491,-3.7421 -4.5962,5.7847 -8.7378,8.6687 -12.4156,8.6687 -3.8109,0 -5.7165,-3.3481 -5.7165,-10.0463 0,-1.5109 0.2297,-3.0567 0.6909,-4.6309 -0.8565,1.3133 -1.549,1.9692 -2.0728,1.9692 -0.3949,0 -0.5923,-0.1331 -0.5923,-0.395 0,-0.5873 1.5451,-2.429 4.6353,-5.5149 6.4372,-6.4409 12.3537,-9.6601 17.7391,-9.6601 3.4786,0 5.2206,1.5152 5.2206,4.5359 0,0.6525 -0.1301,1.3775 -0.3946,2.1635 l 4.0433,-5.944 6.5015,-0.3952 -10.8388,17.0685 c -2.4314,3.8155 -3.6434,6.3776 -3.6434,7.6942 0,1.0525 0.4913,1.5799 1.4743,1.5799 1.6434,0 5.193,-2.7939 10.6431,-8.3855 2.9593,-3.0259 4.468,-4.5415 4.5339,-4.5415 0.393,0 0.5946,0.1334 0.5946,0.3953 z m -14.4753,-9.6602 c 0,-2.0347 -1.084,-3.0554 -3.2534,-3.0554 -3.4117,0 -7.0426,2.6943 -10.8857,8.0804 -3.843,5.3907 -5.766,10.0167 -5.766,13.8968 0,2.038 0.79,3.0554 2.3652,3.0554 2.3645,0 5.4222,-2.0685 9.1665,-6.2105 5.5838,-6.1753 8.3734,-11.433 8.3734,-15.7667 z" />
      <path
         id="path245"
         style="fill:#1b1918;fill-rule:evenodd"
         d="m 243.7554,325.6625 c 0,0.5929 -1.53,2.4333 -4.5834,5.5274 -3.0577,3.0904 -5.3049,5.193 -6.7529,6.313 -2.0325,1.5153 -3.8735,2.2665 -5.5172,2.2665 -2.6952,0 -4.0384,-1.6398 -4.0384,-4.9266 0,-0.7172 0.1632,-1.9705 0.4894,-3.7421 -4.5963,5.7847 -8.7379,8.6687 -12.4118,8.6687 -3.8148,0 -5.7204,-3.3481 -5.7204,-10.0463 0,-1.5109 0.2314,-3.0567 0.6929,-4.6309 -0.8561,1.3133 -1.5493,1.9692 -2.0728,1.9692 -0.3946,0 -0.5945,-0.1331 -0.5945,-0.395 0,-0.5873 1.547,-2.429 4.6352,-5.5149 6.4399,-6.4409 12.3556,-9.6601 17.7418,-9.6601 3.4805,0 5.2206,1.5152 5.2206,4.5359 0,0.6525 -0.1311,1.3775 -0.3947,2.1635 l 4.0427,-5.944 6.5015,-0.3952 -10.8382,17.0685 c -2.4336,3.8155 -3.644,6.3776 -3.644,7.6942 0,1.0525 0.4896,1.5799 1.4749,1.5799 1.6411,0 5.1901,-2.7939 10.6428,-8.3855 2.959,-3.0259 4.4654,-4.5415 4.5342,-4.5415 0.3947,0 0.5923,0.1334 0.5923,0.3953 z m -14.4737,-9.6602 c 0,-2.0347 -1.0835,-3.0554 -3.251,-3.0554 -3.4163,0 -7.0466,2.6943 -10.888,8.0804 -3.8453,5.3907 -5.7633,10.0167 -5.7633,13.8968 0,2.038 0.7872,3.0554 2.3621,3.0554 2.3629,0 5.4225,-2.0685 9.1653,-6.2105 5.5831,-6.1753 8.3749,-11.433 8.3749,-15.7667 z" />
      <path
         id="path247"
         style="fill:#1b1918;fill-rule:evenodd"
         d="m 271.5428,325.7788 c 0,0.5274 -1.6736,2.4976 -5.0253,5.9135 -5.3176,5.3862 -9.9826,8.0771 -13.9912,8.0771 -2.4333,0 -4.4202,-1.0007 -5.961,-3.0004 -1.5451,-2.0042 -2.312,-4.5483 -2.312,-7.6388 0,-1.2488 0.1953,-2.5959 0.5913,-4.038 -0.9863,1.2491 -1.7113,1.8712 -2.1708,1.8712 -0.395,0 -0.59,-0.1334 -0.59,-0.3953 0,-0.3907 1.3107,-1.9997 3.9407,-4.8283 6.373,-6.8282 12.317,-10.2484 17.8319,-10.2484 4.2701,0 6.4074,1.7083 6.4074,5.1242 0,1.3176 -0.3605,2.3995 -1.0855,3.253 -0.7257,0.8539 -1.5752,1.2829 -2.5621,1.2829 -1.9699,0 -2.9528,-0.8538 -2.9528,-2.5657 0,-0.8545 0.5064,-1.5887 1.5277,-2.2141 1.0127,-0.6266 1.5237,-1.232 1.5237,-1.8246 0,-1.1157 -0.687,-1.6782 -2.0685,-1.6782 -2.7597,0 -5.9784,2.2065 -9.6568,6.6045 -3.9437,4.7302 -5.9132,9.4942 -5.9132,14.2874 0,3.0895 1.3474,4.631 4.0423,4.631 3.1544,0 7.1927,-2.429 12.12,-7.2911 1.1154,-1.1167 2.4631,-2.5283 4.0423,-4.2366 0.8499,-1.0515 1.4077,-1.5753 1.6739,-1.5753 0.3949,0 0.588,0.1636 0.588,0.49 z" />
      <path
         id="path249"
         style="fill:#1b1918;fill-rule:evenodd"
         d="m 390.1098,267.919 c 0,0.5227 -0.7201,1.0422 -2.1691,1.566 -2.6264,1.1157 -4.6634,2.0597 -6.1085,2.841 4.941,2.8965 7.415,7.0686 7.415,12.5225 0,4.0774 -1.5786,7.691 -4.7356,10.849 -3.1524,3.155 -7.6217,5.3864 -13.4064,6.704 4.6555,1.0515 8.2779,2.9912 10.8705,5.8198 2.5877,2.824 3.884,6.1462 3.884,9.9571 0,5.5182 -2.2301,10.4798 -6.6912,14.8869 -4.4589,4.4038 -9.7457,6.6058 -15.8536,6.6058 -4.0741,0 -7.3576,-1.0987 -9.8574,-3.296 -2.4979,-2.1977 -3.7421,-5.0384 -3.7421,-8.5199 0,-5.5192 2.8194,-9.8528 8.4733,-13.0079 3.0217,-1.7073 5.4232,-2.5621 7.1928,-2.5621 0.4618,0 0.6932,0.296 0.6932,0.8886 0,0.1976 -0.5621,0.5241 -1.6778,0.9826 -1.6431,0.6568 -3.1538,1.4169 -4.5313,2.2707 -5.5196,3.5445 -8.2793,7.8149 -8.2793,12.806 0,4.669 3.0216,6.9951 9.0662,6.9951 3.4844,0 6.9659,-1.5401 10.4458,-4.6306 2.3668,-2.1672 4.273,-4.7293 5.7172,-7.6863 1.4418,-2.9529 2.1668,-5.8109 2.1668,-8.5707 0,-3.2825 -0.8738,-5.9948 -2.6116,-8.1275 -1.7401,-2.1377 -4.1239,-3.3989 -7.1456,-3.7942 -2.824,0.7204 -4.8925,1.0816 -6.2081,1.0816 -1.3799,0 -2.0689,-0.6221 -2.0689,-1.8709 0,-1.3821 1.0515,-2.0685 3.1528,-2.0685 1.0534,0 2.3995,0.2268 4.0426,0.6864 3.8752,0 7.1308,-1.6565 9.7614,-4.9738 2.6369,-3.3222 3.9522,-7.3432 3.9522,-12.0731 0,-3.2872 -1.3153,-6.3383 -3.9453,-9.1669 -4.2727,2.6955 -8.8414,7.3904 -13.7037,14.0944 -0.8535,1.1846 -5.7201,8.5061 -14.5956,21.9772 -6.5707,9.9816 -12.257,17.0459 -17.0551,21.1832 -5.7857,4.9922 -11.965,7.4809 -18.536,7.4809 -5.9177,0 -10.6647,-1.8204 -14.2481,-5.4677 -3.5835,-3.6484 -5.3734,-8.4291 -5.3734,-14.3472 0,-6.3088 1.9056,-12.7336 5.7165,-19.2737 3.8109,-6.5359 9.197,-12.3691 16.1669,-17.4966 14.1243,-10.4504 29.0417,-15.6776 44.7488,-15.6776 7.4929,0 13.9315,1.2524 19.3189,3.7467 5.1905,-2.6998 8.2809,-4.0561 9.2655,-4.0561 0.3308,0 0.4933,0.2406 0.4933,0.7218 z m -13.8758,5.8872 c -4.3415,-3.0859 -9.8928,-4.6306 -16.6657,-4.6306 -7.0335,0 -13.9348,1.1983 -20.7067,3.5965 -6.7726,2.3996 -12.7198,5.7293 -17.8447,10.0043 -6.18,5.1243 -10.9267,10.9001 -14.2479,17.3419 -3.3222,6.4373 -4.9787,12.9742 -4.9787,19.6091 0,5.6516 1.3304,10.0849 3.9912,13.3042 2.6653,3.2179 6.1629,4.8282 10.5018,4.8282 5.1288,0 10.0594,-2.3012 14.7893,-6.8971 3.0895,-3.0216 6.3088,-6.9013 9.6602,-11.6303 0.2022,-0.3907 3.0599,-4.8283 8.5837,-13.3039 4.9958,-7.6863 9.1049,-13.566 12.3252,-17.6388 4.6634,-5.9102 9.53,-10.7723 14.5923,-14.5835 z" />
      <path
         id="path251"
         style="fill:#1b1918;fill-rule:evenodd"
         d="m 411.0732,325.7651 c 0,0.5287 -1.5087,2.3353 -4.5304,5.429 -5.587,5.7172 -9.5932,8.5753 -12.0233,8.5753 -3.5467,0 -5.3218,-2.0689 -5.3218,-6.2105 0,-1.8407 0.7555,-4.1114 2.2661,-6.8069 0.6572,-1.2488 2.5621,-4.2691 5.7172,-9.0718 -1.8394,1.7764 -3.9771,4.0426 -6.4081,6.8069 -1.4422,1.6428 -2.3317,2.4671 -2.6582,2.4671 -0.2641,0 -0.3952,-0.1026 -0.3952,-0.3002 0,-0.9181 4.1714,-5.6867 12.5169,-14.3 l 7.0924,-0.4936 -9.7548,15.3852 c -3.2193,5.0642 -4.8263,8.1547 -4.8263,9.275 0,1.2445 0.5578,1.8712 1.6735,1.8712 2.3002,0 6.1439,-2.8627 11.53,-8.5795 2.8253,-3.0253 4.336,-4.5359 4.5313,-4.5359 0.3953,0 0.5907,0.1626 0.5907,0.4887 z m 4.9266,-30.9686 c 0,1.0524 -0.4101,2.0517 -1.2321,3.0049 -0.822,0.9528 -1.723,1.4284 -2.7076,1.4284 -1.8417,0 -2.7575,-0.9519 -2.7575,-2.8581 0,-1.0512 0.4268,-2.0518 1.2793,-3.0036 0.8538,-0.9528 1.7738,-1.4294 2.7584,-1.4294 1.7729,0 2.6595,0.9531 2.6595,2.8578 z" />
      <path
         id="path253"
         style="fill:#1b1918;fill-rule:evenodd"
         d="m 449.8026,325.6625 c 0,0.5929 -1.53,2.4333 -4.5835,5.5274 -3.0577,3.0904 -5.3045,5.193 -6.7522,6.313 -2.0325,1.5153 -3.8755,2.2665 -5.5172,2.2665 -2.6952,0 -4.039,-1.6398 -4.039,-4.9266 0,-0.7172 0.1638,-1.9705 0.4913,-3.7421 -4.5959,5.7847 -8.7378,8.6687 -12.413,8.6687 -3.8155,0 -5.7205,-3.3481 -5.7205,-10.0463 0,-1.5109 0.2314,-3.0567 0.6923,-4.6309 -0.8562,1.3133 -1.5494,1.9692 -2.0722,1.9692 -0.3952,0 -0.5929,-0.1331 -0.5929,-0.395 0,-0.5873 1.5448,-2.429 4.6352,-5.5149 6.4376,-6.4409 12.3534,-9.6601 17.7395,-9.6601 3.4812,0 5.2213,1.5152 5.2213,4.5359 0,0.6525 -0.1311,1.3775 -0.3953,2.1635 l 4.0426,-5.944 6.5015,-0.3952 -10.8378,17.0685 c -2.431,3.8155 -3.6437,6.3776 -3.6437,7.6942 0,1.0525 0.489,1.5799 1.4746,1.5799 1.6431,0 5.1898,-2.7939 10.6424,-8.3855 2.9597,-3.0259 4.4661,-4.5415 4.535,-4.5415 0.3939,0 0.5916,0.1334 0.5916,0.3953 z m -14.4737,-9.6602 c 0,-2.0347 -1.0829,-3.0554 -3.253,-3.0554 -3.4114,0 -7.043,2.6943 -10.8854,8.0804 -3.8436,5.3907 -5.7633,10.0167 -5.7633,13.8968 0,2.038 0.7869,3.0554 2.3622,3.0554 2.3644,0 5.4221,-2.0685 9.1645,-6.2105 5.5857,-6.1753 8.375,-11.433 8.375,-15.7667 z" />
      <path
         id="path255"
         style="fill:#1b1918;fill-rule:evenodd"
         d="m 504.8994,325.0876 c 0,0.2622 -0.0351,0.4294 -0.0993,0.4936 l -1.0829,1.2829 c -2.8909,3.4123 -6.2419,5.1196 -10.0518,5.1196 -0.9227,0 -1.6759,-0.0646 -2.2698,-0.193 -4.7988,5.3215 -9.1351,7.9787 -13.0148,7.9787 -4.4025,0 -6.6067,-3.4124 -6.6067,-10.2485 0,-1.2445 0.2596,-2.7598 0.7814,-4.5326 -0.9836,1.3133 -1.7086,1.9705 -2.1682,1.9705 -0.3284,0 -0.4913,-0.1334 -0.4913,-0.3953 0,-0.394 1.3484,-2.0685 4.0427,-5.0246 6.2442,-6.8329 12.0324,-10.2531 17.3599,-10.2531 2.1013,0 3.7647,0.6438 4.9784,1.9263 1.2163,1.2796 1.8259,3.0049 1.8259,5.1718 0,3.2871 -1.8089,7.2615 -5.4244,11.9263 0.9846,0.1976 1.5106,0.2959 1.5775,0.2959 2.9548,0 5.6817,-1.4454 8.1796,-4.3382 l 1.2816,-1.4769 c 0.1943,-0.1967 0.4585,-0.296 0.7892,-0.296 0.2599,0 0.393,0.1976 0.393,0.5926 z m -9.4658,-7.2141 c 0,-3.2838 -1.2514,-4.9266 -3.7489,-4.9266 -2.9653,0 -6.3042,2.6477 -10.0227,7.9345 -3.7217,5.2881 -5.5768,9.8712 -5.5768,13.7467 0,2.3645 1.0183,3.5444 3.06,3.5444 2.4978,0 5.5939,-1.9692 9.2806,-5.9089 4.6693,-4.9921 7.0078,-9.7899 7.0078,-14.3901 z" />
      <path
         id="path257"
         style="fill:#1b1918;fill-rule:evenodd"
         d="m 540.8523,279.0547 -35.7687,59.6203 -5.9112,0.6866 14.1902,-22.6555 -7.884,8.4752 c -1.1842,1.2534 -1.9374,1.8758 -2.2685,1.8758 -0.3949,0 -0.5906,-0.1334 -0.5906,-0.3943 0,-0.1976 1.9367,-2.3992 5.8155,-6.6054 4.9276,-5.3864 9.4251,-11.5618 13.4979,-18.531 l 12.6129,-21.5832 z m 1.4782,46.7196 c 0,0.5962 -1.5742,2.5021 -4.7312,5.7204 -5.3861,5.5192 -9.16,8.2747 -11.3304,8.2747 -1.5107,0 -2.8578,-0.7512 -4.04,-2.2619 -1.18,-1.5107 -1.7752,-3.253 -1.7752,-5.2268 0,-1.1846 0.2475,-2.5113 0.7407,-3.9918 0.4914,-1.4756 0.7385,-2.3812 0.7385,-2.7077 0,-0.2022 -0.0642,-0.6267 -0.1953,-1.2838 -1.9725,0.9878 -3.515,1.4769 -4.633,1.4769 -1.3776,0 -2.0685,-0.5579 -2.0685,-1.6733 0,-1.3776 1.0862,-2.0688 3.2531,-2.0688 0.9823,0 2.0019,0.296 3.0534,0.8843 1.1799,-0.1931 2.3327,-0.8843 3.4484,-2.0688 l 3.4484,-4.0391 c 3.0895,-3.6132 5.8469,-5.4202 8.2802,-5.4202 2.5589,0 3.8414,1.1498 3.8414,3.451 0,2.1669 -0.9528,3.2485 -2.8578,3.2485 -1.0514,0 -1.8564,-0.6739 -2.4142,-2.0177 -0.5579,-1.3471 -1.0692,-2.0213 -1.5277,-2.0213 -0.5264,0 -1.1508,0.6866 -1.8732,2.0688 -1.117,1.906 -2.0688,3.2881 -2.8594,4.1416 -1.5061,1.7041 -3.3468,2.8581 -5.5159,3.4464 2.6267,1.6441 3.941,3.6179 3.941,5.9178 0,1.1803 -0.2937,2.5926 -0.8876,4.2357 -0.5906,1.644 -0.8843,2.6952 -0.8843,3.1547 0,0.8492 0.4576,1.2828 1.3776,1.2828 1.6441,0 5.3537,-3.0599 11.1393,-9.1711 2.4268,-2.5621 3.6756,-3.8404 3.7421,-3.8404 0.3953,0 0.5896,0.1626 0.5896,0.4891 z" />
      <path
         id="path259"
         style="fill:#1b1918;fill-rule:evenodd"
         d="m 575.7472,325.0876 c 0,0.2622 -0.0305,0.4294 -0.095,0.4936 l -1.0862,1.2829 c -2.8886,3.4123 -6.2433,5.1196 -10.0541,5.1196 -0.9158,0 -1.6736,-0.0646 -2.2629,-0.193 -4.7991,5.3215 -9.1397,7.9787 -13.0171,7.9787 -4.4071,0 -6.609,-3.4124 -6.609,-10.2485 0,-1.2445 0.2596,-2.7598 0.7824,-4.5326 -0.9846,1.3133 -1.7051,1.9705 -2.1669,1.9705 -0.3284,0 -0.4913,-0.1334 -0.4913,-0.3953 0,-0.394 1.3474,-2.0685 4.0403,-5.0246 6.2465,-6.8329 12.0348,-10.2531 17.3577,-10.2531 2.1059,0 3.767,0.6438 4.983,1.9263 1.214,1.2796 1.8236,3.0049 1.8236,5.1718 0,3.2871 -1.8089,7.2615 -5.4222,11.9263 0.9824,0.1976 1.5107,0.2959 1.5772,0.2959 2.9551,0 5.6798,-1.4454 8.1764,-4.3382 l 1.2829,-1.4769 c 0.1976,-0.1967 0.4595,-0.296 0.7905,-0.296 0.2619,0 0.3907,0.1976 0.3907,0.5926 z m -9.4625,-7.2141 c 0,-3.2838 -1.2514,-4.9266 -3.7535,-4.9266 -2.9607,0 -6.2996,2.6477 -10.0181,7.9345 -3.7171,5.2881 -5.5791,9.8712 -5.5791,13.7467 0,2.3645 1.0206,3.5444 3.0613,3.5444 2.5021,0 5.5949,-1.9692 9.2796,-5.9089 4.6735,-4.9921 7.0098,-9.7899 7.0098,-14.3901 z" />
      <path
         id="path261"
         style="fill:#1b1918;fill-rule:evenodd"
         d="m 596.6254,325.7788 c 0,0.4628 -1.278,2.0381 -3.8414,4.7336 -5.9135,6.1708 -10.9089,9.257 -14.9775,9.257 -2.038,0 -3.665,-0.472 -4.8777,-1.4251 -1.2173,-0.9532 -1.825,-2.1839 -1.825,-3.6949 0,-0.8545 0.3117,-1.5919 0.9341,-2.2186 0.6264,-0.6221 1.3311,-0.9361 2.1216,-0.9361 1.3776,0 2.0676,0.6267 2.0676,1.8755 0,0.3264 -0.1977,0.918 -0.5874,1.7728 -0.3949,0.8538 -0.5926,1.5107 -0.5926,1.9692 0,0.7217 0.49,1.082 1.4769,1.082 2.038,0 4.1069,-1.8024 6.2095,-5.4157 2.4942,-4.2061 3.743,-9.2658 3.743,-15.1714 0,-0.7896 -0.0655,-2.0384 -0.1943,-3.7467 -2.6297,2.691 -5.553,5.9102 -8.7713,9.6523 -2.0393,2.3687 -3.253,3.5487 -3.6483,3.5487 -0.3311,0 -0.4936,-0.1331 -0.4936,-0.395 0,-0.4585 4.2707,-5.3513 12.8106,-14.6814 1.1203,-2.7598 2.4683,-4.1374 4.0436,-4.1374 1.312,0 1.9692,0.6267 1.9692,1.8709 0,1.0557 -0.691,1.8758 -2.0685,2.4641 -1.1157,0.4628 -1.7424,0.7598 -1.8712,0.8886 -0.3953,0.3939 -0.593,1.2825 -0.593,2.6601 0,1.2491 0.314,3.1845 0.9365,5.8109 0.6221,2.6309 0.9357,4.6014 0.9357,5.9145 0,1.9737 -0.429,3.9092 -1.2792,5.8109 1.3133,-1.3776 2.6263,-2.7903 3.9397,-4.2357 2.3644,-2.4976 3.6437,-3.7431 3.8459,-3.7431 0.394,0 0.5871,0.1636 0.5871,0.49 z" />
      <path
         id="path263"
         style="fill:#1b1918;fill-rule:evenodd"
         d="m 629.1479,325.7743 c 0,0.524 -1.5798,2.3985 -4.7335,5.6175 -5.5146,5.5873 -9.2964,8.3776 -11.3301,8.3776 -2.6952,0 -4.039,-1.8417 -4.039,-5.5241 0,-0.7247 0.1288,-1.5448 0.3906,-2.4628 0.2665,-0.9191 0.3953,-1.5107 0.3953,-1.7772 0,-0.2576 -0.2271,-0.3907 -0.6866,-0.3907 -2.8286,0 -5.9824,1.3481 -9.4635,4.0391 -0.9869,0.7892 -2.2314,2.1026 -3.7467,3.9443 -1.0465,1.313 -1.9354,1.9692 -2.6558,1.9692 -0.8581,0 -1.2839,-0.3943 -1.2839,-1.18 0,-1.451 1.5458,-3.0252 4.6307,-4.7335 6.8328,-5.9135 13.2701,-11.1417 19.317,-15.673 -2.824,0.7893 -4.9607,1.1846 -6.4035,1.1846 -2.236,0 -4.0427,-0.6572 -5.4248,-1.9751 -3.3468,4.1419 -5.4494,6.7086 -6.3042,7.6955 l -1.5795,1.7729 c -0.3251,0.3939 -0.5874,0.587 -0.7893,0.587 -0.2576,0 -0.4201,-0.0938 -0.489,-0.2914 v -0.395 c 0,-0.0645 0.0292,-0.1966 0.0984,-0.3943 l 1.0862,-1.3821 c 1.5752,-1.8417 3.9734,-4.8621 7.1927,-9.0682 -0.3307,-0.7896 -0.4979,-1.3471 -0.4979,-1.6782 0,-2.038 1.0862,-3.06 3.2531,-3.06 1.7761,0 2.665,0.7251 2.665,2.1715 0,0.4595 -0.1334,1.0173 -0.3943,1.6778 -0.2619,0.6575 -0.3953,1.0514 -0.3953,1.1803 0,1.1199 1.0515,1.6788 3.1541,1.6788 2.4943,0 4.6611,-0.5238 6.5015,-1.5753 1.0524,-0.5283 2.2665,-1.4506 3.6483,-2.764 0.9826,-1.0515 1.7729,-1.5798 2.3602,-1.5798 0.9237,0 1.3819,0.3648 1.3819,1.0865 0,0.8535 -0.3907,1.5795 -1.18,2.1711 -0.2664,0.1931 -1.4113,0.8201 -3.4507,1.8712 -5.9777,4.275 -11.6598,8.7126 -17.0459,13.3127 4.2016,-1.9701 6.9309,-2.957 8.1796,-2.957 2.5576,0 3.8414,1.215 3.8414,3.6483 0,0.9869 -0.3474,2.2186 -1.0341,3.6991 -0.6909,1.4769 -1.0344,2.3475 -1.0344,2.6097 0,0.7246 0.2271,1.0894 0.6909,1.0894 1.1157,0 4.2019,-2.5011 9.2606,-7.4975 1.0525,-1.0515 2.2967,-2.3986 3.7431,-4.0381 0.7892,-0.9868 1.3133,-1.4801 1.5752,-1.4801 0.3943,0 0.5962,0.1625 0.5962,0.4933 z" />
      <path
         id="path265"
         style="fill:#1b1918;fill-rule:evenodd"
         d="m 230.2562,284.4283 c -0.2963,-0.2572 -0.747,-0.2277 -1.0089,0.0692 -7.0596,8.0679 -13.5123,11.4373 -19.454,13.123 l 11.6903,-18.5658 -6.4051,0.8885 -12.2957,19.1024 c -0.7555,0.1071 -1.5041,0.2146 -2.2402,0.3126 -6.6244,0.8935 -12.3446,1.6657 -17.085,7.8549 -0.2406,0.3127 -0.1803,0.7597 0.1334,0.9993 0.3107,0.2403 0.7591,0.1806 0.9997,-0.1324 4.3841,-5.7168 9.8322,-6.4553 16.1426,-7.3045 0.3373,-0.0475 0.6827,-0.0947 1.0259,-0.1423 l -6.0964,9.4717 c -0.721,1.0521 -3.5788,4.3393 -8.5703,9.8542 l -3.1544,3.4507 c -1.5103,1.6431 -2.2658,2.7293 -2.2658,3.253 0,0.2655 0.1632,0.3943 0.4936,0.3943 0.3261,0 1.2121,-0.82 2.6608,-2.4628 2.3622,-2.7597 4.4333,-5.0597 6.2058,-6.8971 -3.0213,4.5959 -4.9269,7.6175 -5.7168,9.0639 -1.4422,2.6952 -2.1645,4.9617 -2.1645,6.8021 0,4.1373 1.7745,6.2062 5.3212,6.2062 2.4271,0 6.4356,-2.8548 12.0233,-8.5707 3.021,-3.0904 4.5274,-4.8971 4.5274,-5.4244 0,-0.3265 -0.1931,-0.4891 -0.5877,-0.4891 -0.2642,0 -0.7555,0.4248 -1.4763,1.2783 -1.4467,1.5798 -2.4634,2.6647 -3.0557,3.2531 -3.1544,3.155 -5.4205,5.2576 -6.7981,6.3087 -1.9056,1.511 -3.5834,2.2665 -5.0275,2.2665 -1.1823,0 -1.7746,-0.6267 -1.7746,-1.8712 0,-1.0557 1.6113,-4.1416 4.8277,-9.2658 l 17.5529,-27.8749 c 6.4806,-1.6002 13.7959,-4.9741 21.6406,-13.943 0.2576,-0.296 0.2278,-0.7463 -0.0682,-1.0086 z" />
      <path
         id="path267"
         style="fill:#1b1918;fill-rule:evenodd"
         d="m 496.7614,284.4283 c -0.2956,-0.2572 -0.7463,-0.2277 -1.0082,0.0692 -7.0597,8.0679 -13.5117,11.4373 -19.4533,13.123 l 11.6903,-18.5658 -6.4058,0.8885 -12.2957,19.1024 c -0.7555,0.1071 -1.5041,0.2146 -2.2403,0.3126 -6.6237,0.8935 -12.3442,1.6657 -17.0843,7.8549 -0.2405,0.3127 -0.1809,0.7597 0.1331,0.9993 0.3104,0.2403 0.7588,0.1806 0.9994,-0.1324 4.3844,-5.7168 9.8319,-6.4553 16.1439,-7.3045 0.3363,-0.0475 0.6817,-0.0947 1.0252,-0.1423 l -6.0963,9.4717 c -0.7218,1.0521 -3.5795,4.3393 -8.5707,9.8542 l -3.1547,3.4507 c -1.5097,1.6431 -2.2652,2.7293 -2.2652,3.253 0,0.2655 0.1626,0.3943 0.4936,0.3943 0.3252,0 1.2114,-0.82 2.6602,-2.4628 2.3621,-2.7597 4.4329,-5.0597 6.2058,-6.8971 -3.0216,4.5959 -4.9266,7.6175 -5.7168,9.0639 -1.4422,2.6952 -2.1646,4.9617 -2.1646,6.8021 0,4.1373 1.7749,6.2062 5.3216,6.2062 2.4267,0 6.4353,-2.8548 12.0223,-8.5707 3.0216,-3.0904 4.528,-4.8971 4.528,-5.4244 0,-0.3265 -0.193,-0.4891 -0.587,-0.4891 -0.2645,0 -0.7555,0.4248 -1.4769,1.2783 -1.4467,1.5798 -2.4641,2.6647 -3.0557,3.2531 -3.155,3.155 -5.4199,5.2576 -6.7975,6.3087 -1.9062,1.511 -3.584,2.2665 -5.0282,2.2665 -1.1822,0 -1.7741,-0.6267 -1.7741,-1.8712 0,-1.0557 1.6116,-4.1416 4.8272,-9.2658 l 17.553,-27.8749 c 6.4805,-1.6002 13.7962,-4.9741 21.6405,-13.943 0.2577,-0.296 0.2282,-0.7463 -0.0688,-1.0086 z" />
    </g>
  </g>
</svg>
