<svg id="svg" version="1.1" xmlns="http://www.w3.org/2000/svg" xmlns:xlink="http://www.w3.org/1999/xlink" width="400" height="37.83170787026536" viewBox="0, 0, 400,37.83170787026536"><g id="svgg"><path id="path0" d="M190.867 8.102 C 186.648 8.962,184.889 12.088,186.668 15.564 C 187.631 17.446,190.142 19.573,192.487 20.494 L 193.224 20.784 190.807 22.056 C 184.218 25.524,182.318 25.040,175.500 18.161 C 172.009 14.638,170.353 13.252,168.583 12.372 C 164.810 10.493,160.264 10.829,156.661 13.254 L 155.764 13.858 154.976 13.489 C 153.096 12.608,150.890 13.373,146.101 16.564 C 141.172 19.848,139.148 20.550,134.583 20.561 C 129.147 20.574,126.259 18.597,126.543 15.057 C 126.808 11.757,129.625 10.060,132.417 11.518 C 135.087 12.913,134.604 16.001,131.667 16.318 C 130.168 16.479,130.199 17.167,131.706 17.167 C 135.949 17.167,136.841 12.349,132.909 10.663 C 129.324 9.127,126.099 10.952,125.399 14.914 L 125.282 15.578 125.054 14.919 C 124.221 12.513,120.375 11.605,119.200 13.538 C 118.516 14.663,118.536 16.372,119.243 17.259 C 120.017 18.228,122.344 17.635,122.132 16.522 C 122.060 16.144,121.318 16.068,121.065 16.414 C 120.468 17.230,119.732 16.244,119.921 14.882 C 120.240 12.582,123.159 13.016,123.996 15.489 C 124.943 18.284,122.693 20.988,119.417 20.994 C 117.910 20.997,117.224 20.611,113.333 17.576 C 109.310 14.436,105.592 14.203,104.025 16.991 C 103.143 18.560,104.434 20.005,105.978 19.179 C 106.871 18.700,106.320 17.224,105.304 17.373 L 104.857 17.439 105.185 17.022 C 105.731 16.328,106.150 16.130,107.257 16.041 C 109.132 15.890,109.982 16.301,113.431 19.023 C 115.608 20.741,116.748 21.400,118.184 21.768 C 121.376 22.585,124.531 20.591,125.244 17.306 C 125.370 16.725,125.481 16.438,125.490 16.667 C 125.612 19.655,129.504 21.635,134.895 21.450 C 139.972 21.277,142.254 20.466,146.500 17.327 C 150.521 14.354,153.148 13.355,154.378 14.330 L 154.840 14.696 154.012 15.602 C 151.420 18.438,151.173 22.766,153.490 24.716 C 155.556 26.455,160.084 25.727,161.265 23.467 C 162.369 21.354,158.599 18.229,157.098 20.013 C 156.077 21.226,156.954 22.412,158.136 21.417 C 158.802 20.857,159.053 20.891,159.386 21.589 C 160.575 24.082,156.589 25.537,154.538 23.359 C 151.090 19.697,156.534 12.565,162.750 12.601 C 166.933 12.625,169.645 14.226,174.667 19.633 C 179.151 24.461,182.473 26.132,185.968 25.318 C 186.994 25.079,188.872 24.487,189.083 24.337 C 189.692 23.904,189.879 24.020,189.399 24.531 C 189.114 24.835,188.664 25.334,188.399 25.641 C 185.469 29.029,180.648 29.497,175.513 26.892 C 170.617 24.407,167.530 24.671,165.407 27.754 C 163.258 30.873,166.606 34.222,170.127 32.475 C 172.328 31.383,171.370 28.617,169.117 29.559 C 168.289 29.905,168.301 30.237,169.139 30.125 C 170.041 30.004,170.333 30.218,170.333 30.999 C 170.333 31.813,169.887 32.167,168.857 32.167 C 165.633 32.167,164.780 29.525,167.167 26.935 C 168.752 25.216,170.537 25.363,174.851 27.566 C 181.380 30.902,185.935 29.868,191.023 23.897 C 191.570 23.255,192.148 22.838,193.353 22.216 L 194.956 21.388 196.186 21.604 C 197.794 21.886,200.104 21.879,201.667 21.586 L 202.917 21.352 204.624 22.189 C 205.563 22.650,206.390 23.131,206.461 23.259 C 206.824 23.907,209.658 26.761,210.519 27.346 C 214.515 30.060,218.072 30.124,223.167 27.574 C 226.743 25.784,227.989 25.472,229.528 25.981 C 231.288 26.564,232.808 29.747,231.950 31.056 C 231.322 32.015,228.710 32.543,228.018 31.852 C 227.204 31.038,227.719 29.972,228.852 30.124 C 229.730 30.241,229.688 29.867,228.786 29.524 C 227.631 29.084,226.667 29.686,226.667 30.846 C 226.667 32.613,229.465 33.477,231.649 32.384 C 233.506 31.455,233.900 29.761,232.693 27.894 C 230.602 24.659,227.558 24.365,222.481 26.908 C 218.099 29.104,214.637 29.187,211.511 27.172 C 210.808 26.718,207.963 24.000,208.192 24.000 C 208.248 24.000,208.700 24.186,209.196 24.414 C 214.356 26.776,217.310 25.736,223.667 19.321 C 228.991 13.948,231.477 12.500,235.383 12.500 C 241.934 12.500,247.513 21.149,242.750 23.921 C 240.497 25.232,237.491 23.560,238.620 21.622 C 238.916 21.113,239.667 20.775,239.667 21.151 C 239.667 21.476,240.479 21.875,240.915 21.765 C 241.503 21.618,241.496 20.719,240.902 20.013 C 239.419 18.251,235.722 21.322,236.774 23.440 C 238.002 25.910,242.904 26.489,244.866 24.396 C 246.893 22.234,246.445 18.184,243.880 15.489 C 243.005 14.569,243.212 14.177,244.647 14.040 C 246.207 13.890,247.683 14.595,251.513 17.321 C 256.268 20.705,258.322 21.391,263.750 21.407 C 269.782 21.425,272.590 19.546,272.578 15.500 C 272.563 10.758,267.560 8.427,263.872 11.445 C 261.273 13.572,262.795 17.151,266.303 17.163 C 267.813 17.168,267.825 16.478,266.318 16.316 C 263.346 15.997,262.932 12.893,265.678 11.520 C 268.726 9.998,271.509 11.924,271.496 15.548 C 271.485 18.764,268.600 20.575,263.500 20.568 C 258.972 20.562,256.978 19.891,252.306 16.806 C 246.934 13.259,244.933 12.556,242.949 13.520 L 242.222 13.873 241.403 13.294 C 237.916 10.830,233.034 10.481,229.333 12.431 C 227.470 13.413,226.031 14.630,222.333 18.350 C 215.734 24.990,213.724 25.481,207.191 22.052 L 204.799 20.796 205.691 20.433 C 209.752 18.782,212.436 15.221,211.974 12.098 C 211.504 8.917,205.929 6.732,203.501 8.775 C 200.835 11.018,202.823 15.076,206.064 14.006 C 207.270 13.608,206.542 12.206,204.977 11.916 C 204.257 11.782,204.007 12.036,204.512 12.389 L 204.862 12.635 204.516 12.745 C 203.147 13.179,203.797 10.277,205.283 9.323 C 206.948 8.254,208.833 8.874,209.910 10.846 C 212.671 15.900,203.601 22.411,196.323 20.599 C 191.473 19.392,187.614 15.983,187.607 12.897 C 187.598 9.438,191.276 7.524,193.447 9.859 C 194.436 10.922,194.464 13.056,193.484 12.745 L 193.138 12.635 193.500 12.382 C 193.999 12.031,193.686 11.761,192.941 11.901 C 191.580 12.156,190.818 13.621,191.858 13.984 C 194.300 14.835,196.324 12.934,195.604 10.467 C 195.027 8.490,193.268 7.612,190.867 8.102 M276.083 12.812 C 272.600 14.403,273.176 19.630,277.032 21.416 C 279.442 22.533,281.820 21.986,284.879 19.613 C 285.608 19.046,286.665 18.226,287.228 17.788 C 290.116 15.543,293.121 15.372,294.198 17.393 C 294.367 17.711,294.359 17.726,294.120 17.529 C 293.728 17.206,293.166 17.351,292.776 17.875 L 292.435 18.333 292.770 18.783 C 293.438 19.677,294.729 19.573,295.263 18.581 L 295.581 17.990 295.166 17.208 C 293.611 14.283,290.061 14.309,286.167 17.273 C 282.792 19.842,282.263 20.215,281.454 20.591 C 278.375 22.025,274.557 19.587,274.884 16.396 C 275.230 13.024,279.167 12.118,279.167 15.411 C 279.167 16.622,278.586 17.123,278.000 16.417 C 277.612 15.949,277.000 16.100,277.000 16.663 C 277.000 17.747,278.903 18.173,279.788 17.287 C 280.378 16.696,280.478 14.417,279.949 13.610 C 279.235 12.520,277.505 12.163,276.083 12.812 " stroke="none" fill="#1c1c14" fill-rule="evenodd"></path><path id="path1" d="M274.740 13.708 L 274.250 14.250 274.792 13.760 C 275.297 13.304,275.410 13.167,275.281 13.167 C 275.252 13.167,275.009 13.410,274.740 13.708 M7.056 17.595 C 7.001 17.738,7.044 17.944,7.153 18.053 C 7.341 18.241,99.153 18.352,100.355 18.165 C 100.822 18.093,100.891 17.744,100.488 17.489 C 100.013 17.189,7.172 17.293,7.056 17.595 M299.292 17.448 C 298.844 17.566,298.946 17.978,299.458 18.122 C 299.710 18.192,320.699 18.250,346.099 18.250 C 394.519 18.250,393.333 18.267,392.665 17.599 C 392.485 17.419,299.971 17.269,299.292 17.448 M208.500 25.719 C 208.500 25.748,208.744 25.991,209.042 26.260 L 209.583 26.750 209.094 26.208 C 208.638 25.703,208.500 25.590,208.500 25.719 M226.539 30.833 C 226.539 31.154,226.573 31.285,226.615 31.125 C 226.657 30.965,226.657 30.702,226.615 30.542 C 226.573 30.381,226.539 30.512,226.539 30.833 " stroke="none" fill="#040404" fill-rule="evenodd"></path><path id="path2" d="" stroke="none" fill="#14200c" fill-rule="evenodd"></path><path id="path3" d="" stroke="none" fill="#14200c" fill-rule="evenodd"></path><path id="path4" d="" stroke="none" fill="#14200c" fill-rule="evenodd"></path></g></svg>